<svg xmlns="http://www.w3.org/2000/svg" xmlns:xlink="http://www.w3.org/1999/xlink" width="500" zoomAndPan="magnify" viewBox="0 0 375 374.999991" height="500" preserveAspectRatio="xMidYMid meet" version="1.0"><defs><g/><clipPath id="e1279f56ee"><path d="M 86.707031 86.707031 L 288.28125 86.707031 L 288.28125 288.28125 L 86.707031 288.28125 Z M 86.707031 86.707031 " clip-rule="nonzero"/></clipPath><clipPath id="6dbb8c7909"><path d="M 187.496094 86.707031 C 131.832031 86.707031 86.707031 131.832031 86.707031 187.496094 C 86.707031 243.160156 131.832031 288.28125 187.496094 288.28125 C 243.160156 288.28125 288.28125 243.160156 288.28125 187.496094 C 288.28125 131.832031 243.160156 86.707031 187.496094 86.707031 Z M 187.496094 86.707031 " clip-rule="nonzero"/></clipPath><clipPath id="e2cccd1e7b"><path d="M 175 200 L 223 200 L 223 251.253906 L 175 251.253906 Z M 175 200 " clip-rule="nonzero"/></clipPath><clipPath id="c760bfa517"><path d="M 123.753906 123.753906 L 251.242188 123.753906 L 251.242188 251.242188 L 123.753906 251.242188 Z M 123.753906 123.753906 " clip-rule="nonzero"/></clipPath><clipPath id="f7927df289"><path d="M 187.496094 123.753906 C 152.292969 123.753906 123.753906 152.292969 123.753906 187.496094 C 123.753906 222.703125 152.292969 251.242188 187.496094 251.242188 C 222.703125 251.242188 251.242188 222.703125 251.242188 187.496094 C 251.242188 152.292969 222.703125 123.753906 187.496094 123.753906 Z M 187.496094 123.753906 " clip-rule="nonzero"/></clipPath><clipPath id="6571cba342"><rect x="0" width="183" y="0" height="89"/></clipPath><clipPath id="7279f0d452"><rect x="0" width="173" y="0" height="78"/></clipPath></defs><rect x="-37.5" width="450" fill="#ffffff" y="-37.499999" height="449.999989" fill-opacity="1"/><rect x="-37.5" width="450" fill="#f9fafa" y="-37.499999" height="449.999989" fill-opacity="1"/><g clip-path="url(#e1279f56ee)"><g clip-path="url(#6dbb8c7909)"><path stroke-linecap="butt" transform="matrix(0.75, 0, 0, 0.75, 86.708545, 86.708541)" fill="none" stroke-linejoin="miter" d="M 134.383407 -0.00201261 C 60.164652 -0.00201261 -0.00201861 60.164658 -0.00201861 134.383413 C -0.00201861 208.602168 60.164652 268.76363 134.383407 268.76363 C 208.602162 268.76363 268.763624 208.602168 268.763624 134.383413 C 268.763624 60.164658 208.602162 -0.00201261 134.383407 -0.00201261 Z M 134.383407 -0.00201261 " stroke="#388e3c" stroke-width="14" stroke-opacity="1" stroke-miterlimit="4"/></g></g><path fill="#dd8267" d="M 233.871094 225.890625 C 231.558594 224.207031 229.265625 222.503906 226.980469 220.785156 C 223.796875 218.386719 220.632812 215.957031 217.5 213.492188 C 216.921875 211.304688 216.136719 208.898438 215.066406 206.359375 C 214.519531 205.054688 213.945312 203.839844 213.363281 202.710938 C 213.398438 199.949219 213.84375 197.871094 214.253906 196.46875 C 214.519531 195.5625 214.710938 195.144531 214.902344 194.199219 C 215.21875 192.640625 215.246094 191.101562 214.984375 189.011719 C 214.425781 184.574219 212.855469 179.902344 212.390625 178.554688 C 212.277344 177.019531 212.5625 175.871094 213.117188 175.71875 C 213.492188 175.617188 213.945312 175.984375 214.414062 176.367188 C 214.910156 176.773438 215.226562 177.222656 215.710938 177.90625 C 215.84375 178.09375 216.003906 178.332031 216.195312 178.636719 C 216.480469 179.085938 216.917969 179.820312 217.65625 181.308594 C 218.207031 182.421875 218.265625 182.621094 218.382812 182.605469 C 218.746094 182.570312 218.957031 180.757812 218.789062 179.203125 C 218.582031 177.285156 217.808594 175.910156 217.492188 175.394531 C 216.878906 174.394531 216.8125 174.710938 215.789062 173.285156 C 214.605469 171.636719 214.597656 171.058594 213.4375 169.71875 C 212.71875 168.886719 212.664062 169.035156 212.144531 168.339844 C 211.597656 167.613281 210.601562 166.28125 210.925781 164.851562 C 211.046875 164.332031 211.304688 163.949219 211.496094 163.71875 C 213.828125 165.757812 215.789062 167.296875 217.167969 168.335938 C 219.0625 169.765625 220.222656 170.53125 221.382812 172.148438 C 222.550781 173.777344 223 175.265625 223.246094 176.039062 C 223.988281 178.34375 225.367188 181.792969 228.191406 186.574219 C 228.246094 186.953125 228.304688 187.515625 228.269531 188.195312 C 228.207031 189.542969 227.828125 190.527344 227.703125 190.871094 C 226.375 194.492188 227.289062 197.3125 225.757812 201.242188 C 225.621094 201.589844 225.320312 202.324219 225.269531 203.351562 C 225.210938 204.589844 225.554688 205.617188 225.839844 206.269531 C 230.648438 208.78125 235.457031 211.292969 240.265625 213.804688 C 240.550781 214.558594 240.886719 215.671875 240.996094 217.050781 C 241.089844 218.234375 241.207031 219.714844 240.507812 221.34375 C 239.191406 224.433594 236.089844 225.445312 235.726562 225.558594 C 234.976562 225.792969 234.320312 225.859375 233.859375 225.882812 Z M 233.871094 225.890625 " fill-opacity="1" fill-rule="nonzero"/><path fill="#388e3c" d="M 243.179688 165.453125 C 240.605469 166.691406 238.019531 167.910156 235.421875 169.109375 C 231.804688 170.78125 228.164062 172.417969 224.511719 174.015625 C 222.3125 173.492188 219.824219 173.042969 217.078125 172.785156 C 215.671875 172.652344 214.328125 172.585938 213.058594 172.5625 C 210.640625 171.226562 209.023438 169.851562 207.984375 168.828125 C 207.308594 168.164062 207.035156 167.800781 206.292969 167.183594 C 205.066406 166.164062 203.722656 165.414062 201.757812 164.65625 C 197.585938 163.046875 192.726562 162.226562 191.320312 162 C 189.917969 161.371094 189.035156 160.574219 189.164062 160.011719 C 189.25 159.632812 189.789062 159.410156 190.347656 159.175781 C 190.9375 158.929688 191.488281 158.863281 192.316406 158.761719 C 192.546875 158.734375 192.832031 158.703125 193.191406 158.679688 C 193.722656 158.640625 194.578125 158.601562 196.238281 158.660156 C 197.472656 158.699219 197.675781 158.742188 197.722656 158.628906 C 197.863281 158.292969 196.367188 157.246094 194.914062 156.664062 C 193.125 155.9375 191.550781 155.96875 190.945312 156.003906 C 189.773438 156.070312 190.023438 156.28125 188.285156 156.507812 C 186.269531 156.765625 185.757812 156.507812 184.03125 156.890625 C 182.957031 157.128906 183.0625 157.253906 182.203125 157.382812 C 181.304688 157.519531 179.660156 157.765625 178.554688 156.804688 C 178.152344 156.453125 177.9375 156.042969 177.824219 155.769531 C 180.726562 154.683594 183.011719 153.679688 184.578125 152.957031 C 186.734375 151.960938 187.953125 151.304688 189.929688 151.046875 C 191.917969 150.785156 193.441406 151.097656 194.238281 151.242188 C 196.617188 151.679688 200.308594 152.097656 205.859375 151.867188 C 206.214844 152 206.742188 152.214844 207.328125 152.5625 C 208.484375 153.257812 209.175781 154.054688 209.414062 154.328125 C 211.980469 157.210938 214.894531 157.738281 217.636719 160.949219 C 217.878906 161.230469 218.382812 161.847656 219.261719 162.375 C 220.324219 163.015625 221.390625 163.199219 222.101562 163.253906 C 226.589844 160.207031 231.074219 157.15625 235.5625 154.109375 C 236.363281 154.214844 237.5 154.445312 238.765625 155 C 239.855469 155.480469 241.210938 156.074219 242.320312 157.460938 C 244.421875 160.078125 243.847656 163.292969 243.773438 163.664062 C 243.621094 164.433594 243.375 165.046875 243.175781 165.460938 Z M 243.179688 165.453125 " fill-opacity="1" fill-rule="nonzero"/><path fill="#ffa726" d="M 194.03125 127.484375 C 193.90625 130.339844 193.757812 133.195312 193.589844 136.046875 C 193.355469 140.027344 193.078125 144.007812 192.757812 147.984375 C 191.257812 149.671875 189.6875 151.65625 188.160156 153.953125 C 187.382812 155.128906 186.6875 156.28125 186.066406 157.390625 C 183.746094 158.890625 181.769531 159.667969 180.371094 160.097656 C 179.46875 160.378906 179.019531 160.449219 178.125 160.8125 C 176.648438 161.410156 175.355469 162.238281 173.757812 163.617188 C 170.367188 166.53125 167.347656 170.425781 166.480469 171.558594 C 165.265625 172.5 164.148438 172.898438 163.714844 172.519531 C 163.421875 172.265625 163.480469 171.683594 163.539062 171.082031 C 163.601562 170.445312 163.800781 169.929688 164.101562 169.148438 C 164.1875 168.933594 164.292969 168.667969 164.441406 168.339844 C 164.660156 167.855469 165.03125 167.082031 165.863281 165.644531 C 166.480469 164.574219 166.613281 164.414062 166.539062 164.320312 C 166.308594 164.042969 164.679688 164.867188 163.476562 165.867188 C 161.992188 167.101562 161.277344 168.503906 161.019531 169.054688 C 160.527344 170.117188 160.832031 170 160.207031 171.636719 C 159.484375 173.535156 159.011719 173.863281 158.539062 175.566406 C 158.242188 176.628906 158.394531 176.589844 158.109375 177.410156 C 157.804688 178.265625 157.246094 179.832031 155.875 180.347656 C 155.375 180.539062 154.914062 180.53125 154.617188 180.503906 C 155.027344 177.433594 155.222656 174.945312 155.328125 173.222656 C 155.46875 170.855469 155.464844 169.464844 156.167969 167.601562 C 156.882812 165.726562 157.871094 164.53125 158.378906 163.898438 C 159.890625 162.007812 162 158.949219 164.421875 153.949219 C 164.703125 153.695312 165.140625 153.335938 165.726562 152.988281 C 166.882812 152.296875 167.914062 152.066406 168.269531 151.980469 C 172.019531 151.082031 173.863281 148.761719 177.988281 147.863281 C 178.351562 147.78125 179.132812 147.625 180.011719 147.101562 C 181.078125 146.464844 181.742188 145.613281 182.128906 145.015625 C 181.558594 139.617188 180.996094 134.222656 180.425781 128.828125 C 180.894531 128.171875 181.636719 127.277344 182.726562 126.425781 C 183.660156 125.691406 184.828125 124.777344 186.574219 124.453125 C 189.875 123.84375 192.433594 125.867188 192.726562 126.105469 C 193.335938 126.601562 193.757812 127.109375 194.03125 127.480469 Z M 194.03125 127.484375 " fill-opacity="1" fill-rule="nonzero"/><path fill="#388e3c" d="M 138.105469 153.875 C 140.496094 155.441406 142.875 157.023438 145.242188 158.625 C 148.546875 160.855469 151.828125 163.125 155.085938 165.429688 C 155.769531 167.582031 156.675781 169.945312 157.875 172.429688 C 158.492188 173.703125 159.125 174.886719 159.761719 175.984375 C 159.871094 178.746094 159.527344 180.84375 159.1875 182.261719 C 158.96875 183.183594 158.800781 183.605469 158.65625 184.5625 C 158.417969 186.132812 158.472656 187.671875 158.839844 189.746094 C 159.621094 194.148438 161.425781 198.734375 161.960938 200.054688 C 162.148438 201.582031 161.921875 202.742188 161.375 202.921875 C 161.003906 203.046875 160.535156 202.699219 160.046875 202.34375 C 159.53125 201.960938 159.191406 201.527344 158.671875 200.867188 C 158.53125 200.6875 158.355469 200.457031 158.148438 200.164062 C 157.84375 199.730469 157.367188 199.019531 156.558594 197.566406 C 155.949219 196.488281 155.882812 196.292969 155.761719 196.3125 C 155.40625 196.367188 155.285156 198.1875 155.53125 199.730469 C 155.835938 201.636719 156.675781 202.972656 157.019531 203.46875 C 157.683594 204.4375 157.734375 204.113281 158.824219 205.488281 C 160.089844 207.078125 160.132812 207.652344 161.355469 208.929688 C 162.113281 209.726562 162.164062 209.574219 162.71875 210.238281 C 163.300781 210.9375 164.363281 212.21875 164.109375 213.660156 C 164.015625 214.1875 163.777344 214.582031 163.597656 214.824219 C 161.167969 212.902344 159.128906 211.464844 157.699219 210.496094 C 155.734375 209.167969 154.535156 208.460938 153.296875 206.90625 C 152.042969 205.339844 151.523438 203.875 151.234375 203.113281 C 150.378906 200.851562 148.824219 197.476562 145.761719 192.84375 C 145.6875 192.46875 145.601562 191.910156 145.601562 191.230469 C 145.59375 189.882812 145.921875 188.878906 146.03125 188.53125 C 147.171875 184.847656 146.121094 182.074219 147.445312 178.070312 C 147.5625 177.71875 147.828125 176.964844 147.828125 175.941406 C 147.824219 174.699219 147.429688 173.695312 147.113281 173.054688 C 142.183594 170.789062 137.25 168.523438 132.320312 166.261719 C 131.996094 165.523438 131.605469 164.429688 131.425781 163.058594 C 131.273438 161.878906 131.082031 160.410156 131.695312 158.746094 C 132.851562 155.59375 135.898438 154.425781 136.257812 154.292969 C 136.992188 154.023438 137.644531 153.917969 138.101562 153.875 Z M 138.105469 153.875 " fill-opacity="1" fill-rule="nonzero"/><path fill="#dd8267" d="M 131.832031 211.476562 C 134.402344 210.234375 136.988281 209.011719 139.578125 207.804688 C 143.195312 206.125 146.828125 204.484375 150.480469 202.875 C 152.679688 203.398438 155.171875 203.839844 157.917969 204.09375 C 159.328125 204.222656 160.667969 204.289062 161.9375 204.308594 C 164.359375 205.636719 165.980469 207.011719 167.023438 208.03125 C 167.699219 208.695312 167.976562 209.058594 168.71875 209.675781 C 169.945312 210.6875 171.289062 211.4375 173.257812 212.1875 C 177.433594 213.789062 182.292969 214.605469 183.703125 214.824219 C 185.105469 215.453125 185.988281 216.242188 185.863281 216.804688 C 185.777344 217.183594 185.242188 217.410156 184.679688 217.644531 C 184.089844 217.890625 183.542969 217.960938 182.710938 218.0625 C 182.484375 218.089844 182.195312 218.125 181.839844 218.148438 C 181.308594 218.1875 180.453125 218.226562 178.792969 218.175781 C 177.554688 218.136719 177.355469 218.097656 177.308594 218.210938 C 177.171875 218.542969 178.667969 219.589844 180.117188 220.171875 C 181.910156 220.890625 183.484375 220.855469 184.089844 220.820312 C 185.257812 220.75 185.011719 220.542969 186.75 220.3125 C 188.761719 220.046875 189.273438 220.304688 191.003906 219.917969 C 192.078125 219.675781 191.972656 219.554688 192.828125 219.421875 C 193.726562 219.285156 195.371094 219.03125 196.476562 219.992188 C 196.878906 220.34375 197.09375 220.753906 197.207031 221.027344 C 194.308594 222.125 192.027344 223.128906 190.460938 223.855469 C 188.308594 224.851562 187.085938 225.515625 185.117188 225.78125 C 183.128906 226.042969 181.605469 225.738281 180.808594 225.59375 C 178.425781 225.160156 174.734375 224.753906 169.183594 224.992188 C 168.828125 224.863281 168.300781 224.648438 167.71875 224.300781 C 166.558594 223.605469 165.867188 222.8125 165.625 222.539062 C 163.054688 219.660156 160.140625 219.136719 157.390625 215.9375 C 157.148438 215.652344 156.640625 215.042969 155.761719 214.515625 C 154.695312 213.878906 153.628906 213.699219 152.917969 213.640625 C 148.4375 216.699219 143.953125 219.757812 139.472656 222.816406 C 138.675781 222.714844 137.539062 222.488281 136.269531 221.933594 C 135.183594 221.457031 133.824219 220.863281 132.710938 219.480469 C 130.605469 216.867188 131.171875 213.652344 131.246094 213.277344 C 131.394531 212.507812 131.636719 211.894531 131.835938 211.480469 Z M 131.832031 211.476562 " fill-opacity="1" fill-rule="nonzero"/><g clip-path="url(#e2cccd1e7b)"><path fill="#ffa726" d="M 175.355469 246.898438 C 175.9375 244.097656 176.535156 241.304688 177.15625 238.511719 C 178.023438 234.621094 178.929688 230.738281 179.875 226.863281 C 181.625 225.433594 183.492188 223.726562 185.363281 221.699219 C 186.324219 220.660156 187.191406 219.636719 187.980469 218.640625 C 190.511719 217.527344 192.585938 217.078125 194.03125 216.871094 C 194.96875 216.738281 195.425781 216.738281 196.367188 216.523438 C 197.917969 216.164062 199.328125 215.554688 201.121094 214.453125 C 204.933594 212.113281 208.535156 208.746094 209.566406 207.765625 C 210.917969 207.03125 212.085938 206.816406 212.453125 207.257812 C 212.703125 207.554688 212.550781 208.121094 212.398438 208.707031 C 212.238281 209.324219 211.957031 209.800781 211.535156 210.523438 C 211.417969 210.722656 211.269531 210.96875 211.070312 211.265625 C 210.777344 211.714844 210.289062 212.414062 209.242188 213.703125 C 208.457031 214.664062 208.300781 214.796875 208.363281 214.902344 C 208.546875 215.214844 210.285156 214.664062 211.628906 213.863281 C 213.292969 212.882812 214.222656 211.609375 214.5625 211.109375 C 215.21875 210.140625 214.902344 210.207031 215.777344 208.6875 C 216.792969 206.929688 217.308594 206.679688 218.050781 205.074219 C 218.515625 204.074219 218.355469 204.085938 218.769531 203.324219 C 219.207031 202.527344 220.003906 201.070312 221.4375 200.777344 C 221.960938 200.667969 222.417969 200.75 222.707031 200.824219 C 221.8125 203.789062 221.222656 206.214844 220.847656 207.898438 C 220.332031 210.214844 220.113281 211.589844 219.125 213.3125 C 218.125 215.050781 216.953125 216.074219 216.351562 216.621094 C 214.558594 218.25 211.992188 220.929688 208.804688 225.480469 C 208.480469 225.6875 207.996094 225.972656 207.359375 226.222656 C 206.105469 226.722656 205.054688 226.785156 204.691406 226.8125 C 200.84375 227.105469 198.652344 229.101562 194.441406 229.332031 C 194.070312 229.351562 193.277344 229.382812 192.324219 229.761719 C 191.171875 230.21875 190.378906 230.957031 189.902344 231.484375 C 189.601562 236.902344 189.304688 242.320312 189.007812 247.738281 C 188.4375 248.308594 187.566406 249.070312 186.355469 249.742188 C 185.316406 250.316406 184.019531 251.035156 182.242188 251.078125 C 178.886719 251.152344 176.683594 248.75 176.429688 248.464844 C 175.910156 247.878906 175.574219 247.3125 175.363281 246.902344 Z M 175.355469 246.898438 " fill-opacity="1" fill-rule="nonzero"/></g><path fill="#df0012" d="M 208.839844 177.140625 C 208.445312 176.226562 205.96875 170.457031 200.734375 169.277344 C 196.824219 168.398438 193.136719 170.476562 192.386719 170.898438 C 190.03125 172.226562 188.589844 173.96875 187.832031 175.054688 C 187.074219 173.96875 185.632812 172.226562 183.28125 170.898438 C 182.53125 170.476562 178.839844 168.398438 174.929688 169.277344 C 169.695312 170.457031 167.21875 176.226562 166.824219 177.140625 C 163.253906 185.46875 172.039062 199.652344 187.789062 212.761719 L 187.789062 212.828125 C 187.789062 212.828125 187.820312 212.804688 187.832031 212.792969 C 187.847656 212.804688 187.859375 212.816406 187.875 212.828125 L 187.875 212.761719 C 203.625 199.652344 212.410156 185.464844 208.839844 177.140625 Z M 208.839844 177.140625 " fill-opacity="1" fill-rule="nonzero"/><g clip-path="url(#c760bfa517)"><g clip-path="url(#f7927df289)"><path stroke-linecap="butt" transform="matrix(0.75, 0, 0, 0.75, 123.752603, 123.752598)" fill="none" stroke-linejoin="miter" d="M 84.991327 0.00174397 C 38.053824 0.00174397 0.00173797 38.05383 0.00173797 84.991333 C 0.00173797 131.934044 38.053824 169.98613 84.991327 169.98613 C 131.934038 169.98613 169.986124 131.934044 169.986124 84.991333 C 169.986124 38.05383 131.934038 0.00174397 84.991327 0.00174397 Z M 84.991327 0.00174397 " stroke="#388e3c" stroke-width="14" stroke-opacity="1" stroke-miterlimit="4"/></g></g><g transform="matrix(1, 0, 0, 1, 96, 95)"><g clip-path="url(#6571cba342)"><g fill="#388e3c" fill-opacity="1"><g transform="translate(18.944512, 87.38599)"><g><path d="M -13.0625 -3.828125 L -12.578125 -6.75 L -6.75 -5.78125 L -11.6875 -12.125 L -11.078125 -15.71875 L -6.328125 -9.34375 L 2.28125 -13.734375 L 1.703125 -10.203125 L -4.65625 -7.015625 L -3.328125 -5.203125 L 0.75 -4.53125 L 0.265625 -1.609375 Z M -13.0625 -3.828125 "/></g></g></g><g fill="#388e3c" fill-opacity="1"><g transform="translate(21.547645, 73.435411)"><g><path d="M -12.34375 -5.765625 L -11.4375 -8.609375 L 1.4375 -4.515625 L 0.53125 -1.671875 Z M -12.34375 -5.765625 "/></g></g></g><g fill="#388e3c" fill-opacity="1"><g transform="translate(23.230664, 67.06262)"><g><path d="M -11.40625 -7.4375 L -10.203125 -9.890625 L 0.078125 -11.890625 L -7.390625 -15.578125 L -6.09375 -18.21875 L 6.03125 -12.234375 L 4.90625 -9.96875 L -5.6875 -7.890625 L 2.015625 -4.09375 L 0.71875 -1.453125 Z M -11.40625 -7.4375 "/></g></g></g><g fill="#388e3c" fill-opacity="1"><g transform="translate(29.862606, 53.58126)"><g><path d="M -9.65625 -9.609375 L -6.40625 -13.75 C -5.757812 -14.59375 -5.03125 -15.253906 -4.21875 -15.734375 C -3.40625 -16.222656 -2.566406 -16.53125 -1.703125 -16.65625 C -0.835938 -16.78125 0.0234375 -16.726562 0.890625 -16.5 C 1.753906 -16.269531 2.5625 -15.863281 3.3125 -15.28125 L 3.34375 -15.265625 C 4.09375 -14.671875 4.679688 -13.984375 5.109375 -13.203125 C 5.546875 -12.421875 5.804688 -11.59375 5.890625 -10.71875 C 5.972656 -9.84375 5.878906 -8.953125 5.609375 -8.046875 C 5.347656 -7.140625 4.894531 -6.265625 4.25 -5.421875 L 1 -1.28125 Z M -5.703125 -10.296875 L 0.703125 -5.28125 L 2.125 -7.078125 C 2.488281 -7.554688 2.75 -8.054688 2.90625 -8.578125 C 3.070312 -9.097656 3.125 -9.601562 3.0625 -10.09375 C 3 -10.59375 2.832031 -11.070312 2.5625 -11.53125 C 2.300781 -11.988281 1.929688 -12.40625 1.453125 -12.78125 L 1.421875 -12.8125 C 0.960938 -13.164062 0.472656 -13.421875 -0.046875 -13.578125 C -0.566406 -13.734375 -1.078125 -13.78125 -1.578125 -13.71875 C -2.078125 -13.664062 -2.5625 -13.5 -3.03125 -13.21875 C -3.5 -12.945312 -3.914062 -12.570312 -4.28125 -12.09375 Z M -5.703125 -10.296875 "/></g></g></g><g fill="#388e3c" fill-opacity="1"><g transform="translate(38.993677, 41.840266)"><g><path d="M -7.5 -11.359375 L -5.40625 -13.125 L 4.828125 -10.875 L -0.5625 -17.234375 L 1.671875 -19.125 L 10.40625 -8.8125 L 8.484375 -7.171875 L -2.0625 -9.515625 L 3.484375 -2.953125 L 1.234375 -1.046875 Z M -7.5 -11.359375 "/></g></g></g><g fill="#388e3c" fill-opacity="1"><g transform="translate(50.571793, 32.164302)"><g><path d="M -5.1875 -12.578125 L 3.6875 -17.5625 L 4.984375 -15.265625 L -1.3125 -11.71875 L 0.03125 -9.328125 L 5.578125 -12.453125 L 6.859375 -10.140625 L 1.3125 -7.015625 L 2.703125 -4.53125 L 9.109375 -8.125 L 10.40625 -5.828125 L 1.421875 -0.796875 Z M -5.1875 -12.578125 "/></g></g></g><g fill="#388e3c" fill-opacity="1"><g transform="translate(61.815408, 25.881407)"><g><path d="M 6.140625 -1.96875 C 5.160156 -1.625 4.140625 -1.453125 3.078125 -1.453125 C 2.023438 -1.453125 1 -1.664062 0 -2.09375 L 0.953125 -4.65625 C 1.703125 -4.394531 2.429688 -4.226562 3.140625 -4.15625 C 3.859375 -4.09375 4.582031 -4.191406 5.3125 -4.453125 C 5.894531 -4.660156 6.304688 -4.925781 6.546875 -5.25 C 6.796875 -5.570312 6.851562 -5.921875 6.71875 -6.296875 L 6.703125 -6.328125 C 6.640625 -6.503906 6.550781 -6.65625 6.4375 -6.78125 C 6.332031 -6.90625 6.160156 -6.988281 5.921875 -7.03125 C 5.691406 -7.082031 5.390625 -7.109375 5.015625 -7.109375 C 4.640625 -7.117188 4.160156 -7.097656 3.578125 -7.046875 C 2.878906 -6.972656 2.234375 -6.941406 1.640625 -6.953125 C 1.054688 -6.960938 0.53125 -7.046875 0.0625 -7.203125 C -0.40625 -7.367188 -0.8125 -7.628906 -1.15625 -7.984375 C -1.5 -8.335938 -1.785156 -8.828125 -2.015625 -9.453125 L -2.03125 -9.5 C -2.226562 -10.082031 -2.300781 -10.644531 -2.25 -11.1875 C -2.195312 -11.726562 -2.035156 -12.238281 -1.765625 -12.71875 C -1.492188 -13.195312 -1.113281 -13.625 -0.625 -14 C -0.144531 -14.375 0.421875 -14.679688 1.078125 -14.921875 C 2.015625 -15.242188 2.925781 -15.40625 3.8125 -15.40625 C 4.695312 -15.40625 5.550781 -15.257812 6.375 -14.96875 L 5.671875 -12.328125 C 4.960938 -12.515625 4.296875 -12.625 3.671875 -12.65625 C 3.046875 -12.6875 2.460938 -12.609375 1.921875 -12.421875 C 1.378906 -12.222656 1.003906 -11.96875 0.796875 -11.65625 C 0.597656 -11.351562 0.554688 -11.046875 0.671875 -10.734375 L 0.671875 -10.703125 C 0.742188 -10.492188 0.847656 -10.328125 0.984375 -10.203125 C 1.117188 -10.078125 1.3125 -9.988281 1.5625 -9.9375 C 1.8125 -9.894531 2.128906 -9.878906 2.515625 -9.890625 C 2.910156 -9.910156 3.410156 -9.945312 4.015625 -10 C 4.722656 -10.050781 5.363281 -10.054688 5.9375 -10.015625 C 6.519531 -9.984375 7.035156 -9.878906 7.484375 -9.703125 C 7.929688 -9.535156 8.316406 -9.28125 8.640625 -8.9375 C 8.960938 -8.59375 9.21875 -8.140625 9.40625 -7.578125 L 9.421875 -7.5625 C 9.640625 -6.925781 9.71875 -6.316406 9.65625 -5.734375 C 9.601562 -5.160156 9.425781 -4.632812 9.125 -4.15625 C 8.832031 -3.675781 8.429688 -3.25 7.921875 -2.875 C 7.421875 -2.507812 6.828125 -2.207031 6.140625 -1.96875 Z M 6.140625 -1.96875 "/></g></g></g><g fill="#388e3c" fill-opacity="1"><g transform="translate(73.438592, 21.790194)"><g><path d="M 6.375 -0.890625 C 5.363281 -0.722656 4.335938 -0.726562 3.296875 -0.90625 C 2.253906 -1.082031 1.269531 -1.460938 0.34375 -2.046875 L 1.734375 -4.421875 C 2.421875 -4.035156 3.109375 -3.75 3.796875 -3.5625 C 4.492188 -3.382812 5.222656 -3.363281 5.984375 -3.5 C 6.597656 -3.601562 7.050781 -3.789062 7.34375 -4.0625 C 7.644531 -4.34375 7.757812 -4.679688 7.6875 -5.078125 L 7.6875 -5.125 C 7.65625 -5.300781 7.59375 -5.457031 7.5 -5.59375 C 7.414062 -5.738281 7.257812 -5.851562 7.03125 -5.9375 C 6.8125 -6.03125 6.515625 -6.109375 6.140625 -6.171875 C 5.773438 -6.242188 5.300781 -6.300781 4.71875 -6.34375 C 4.019531 -6.394531 3.378906 -6.472656 2.796875 -6.578125 C 2.210938 -6.691406 1.703125 -6.863281 1.265625 -7.09375 C 0.835938 -7.320312 0.484375 -7.640625 0.203125 -8.046875 C -0.078125 -8.460938 -0.273438 -9 -0.390625 -9.65625 L -0.40625 -9.703125 C -0.507812 -10.304688 -0.488281 -10.875 -0.34375 -11.40625 C -0.195312 -11.9375 0.0507812 -12.410156 0.40625 -12.828125 C 0.757812 -13.253906 1.207031 -13.613281 1.75 -13.90625 C 2.289062 -14.207031 2.90625 -14.414062 3.59375 -14.53125 C 4.5625 -14.695312 5.476562 -14.703125 6.34375 -14.546875 C 7.21875 -14.390625 8.039062 -14.097656 8.8125 -13.671875 L 7.65625 -11.1875 C 6.988281 -11.507812 6.351562 -11.734375 5.75 -11.859375 C 5.144531 -11.992188 4.554688 -12.015625 3.984375 -11.921875 C 3.410156 -11.816406 3 -11.628906 2.75 -11.359375 C 2.5 -11.097656 2.398438 -10.800781 2.453125 -10.46875 L 2.46875 -10.4375 C 2.5 -10.21875 2.570312 -10.035156 2.6875 -9.890625 C 2.800781 -9.753906 2.972656 -9.640625 3.203125 -9.546875 C 3.441406 -9.453125 3.753906 -9.378906 4.140625 -9.328125 C 4.535156 -9.273438 5.039062 -9.222656 5.65625 -9.171875 C 6.351562 -9.109375 6.984375 -9.007812 7.546875 -8.875 C 8.109375 -8.75 8.59375 -8.554688 9 -8.296875 C 9.414062 -8.046875 9.753906 -7.726562 10.015625 -7.34375 C 10.273438 -6.957031 10.457031 -6.46875 10.5625 -5.875 L 10.5625 -5.84375 C 10.675781 -5.1875 10.65625 -4.582031 10.5 -4.03125 C 10.34375 -3.476562 10.078125 -2.988281 9.703125 -2.5625 C 9.328125 -2.132812 8.859375 -1.78125 8.296875 -1.5 C 7.734375 -1.21875 7.09375 -1.015625 6.375 -0.890625 Z M 6.375 -0.890625 "/></g></g></g><g fill="#388e3c" fill-opacity="1"><g transform="translate(85.844277, 19.899996)"><g/></g></g><g fill="#388e3c" fill-opacity="1"><g transform="translate(91.776169, 19.377235)"><g><path d="M 2.9375 -13.296875 L 5.890625 -13 L 5.3125 -7.125 L 11.3125 -12.46875 L 14.9375 -12.125 L 8.890625 -6.953125 L 13.859375 1.359375 L 10.296875 1 L 6.6875 -5.125 L 4.984375 -3.671875 L 4.578125 0.453125 L 1.625 0.15625 Z M 2.9375 -13.296875 "/></g></g></g><g fill="#388e3c" fill-opacity="1"><g transform="translate(105.681467, 20.77685)"><g><path d="M 5.3125 -12.53125 L 15.09375 -9.703125 L 14.359375 -7.171875 L 7.40625 -9.1875 L 6.640625 -6.546875 L 12.765625 -4.765625 L 12.03125 -2.21875 L 5.90625 -4 L 5.125 -1.265625 L 12.1875 0.78125 L 11.453125 3.3125 L 1.5625 0.453125 Z M 5.3125 -12.53125 "/></g></g></g><g fill="#388e3c" fill-opacity="1"><g transform="translate(118.025136, 24.292786)"><g><path d="M 7.234375 -2.34375 L 6.25 -11.984375 L 9.359375 -10.4375 L 9.828125 -4.125 L 15.1875 -7.515625 L 18.203125 -6.015625 L 9.921875 -1.0625 L 7.515625 3.765625 L 4.84375 2.421875 Z M 7.234375 -2.34375 "/></g></g></g><g fill="#388e3c" fill-opacity="1"><g transform="translate(130.284028, 30.483423)"><g><path d="M 5.046875 4.015625 C 4.222656 3.390625 3.519531 2.632812 2.9375 1.75 C 2.351562 0.875 1.945312 -0.0976562 1.71875 -1.171875 L 4.40625 -1.796875 C 4.601562 -1.035156 4.867188 -0.34375 5.203125 0.28125 C 5.546875 0.914062 6.023438 1.46875 6.640625 1.9375 C 7.140625 2.3125 7.59375 2.507812 8 2.53125 C 8.40625 2.550781 8.726562 2.398438 8.96875 2.078125 L 9 2.046875 C 9.113281 1.890625 9.1875 1.734375 9.21875 1.578125 C 9.257812 1.421875 9.234375 1.226562 9.140625 1 C 9.054688 0.78125 8.910156 0.515625 8.703125 0.203125 C 8.492188 -0.109375 8.210938 -0.492188 7.859375 -0.953125 C 7.398438 -1.492188 7.007812 -2.007812 6.6875 -2.5 C 6.375 -3 6.148438 -3.484375 6.015625 -3.953125 C 5.890625 -4.429688 5.875 -4.914062 5.96875 -5.40625 C 6.070312 -5.894531 6.328125 -6.410156 6.734375 -6.953125 L 6.765625 -6.984375 C 7.128906 -7.472656 7.550781 -7.84375 8.03125 -8.09375 C 8.519531 -8.351562 9.035156 -8.503906 9.578125 -8.546875 C 10.128906 -8.585938 10.695312 -8.507812 11.28125 -8.3125 C 11.863281 -8.125 12.4375 -7.820312 13 -7.40625 C 13.789062 -6.8125 14.429688 -6.144531 14.921875 -5.40625 C 15.410156 -4.664062 15.765625 -3.875 15.984375 -3.03125 L 13.40625 -2.15625 C 13.164062 -2.851562 12.882812 -3.46875 12.5625 -4 C 12.238281 -4.53125 11.84375 -4.972656 11.375 -5.328125 C 10.914062 -5.671875 10.503906 -5.835938 10.140625 -5.828125 C 9.773438 -5.816406 9.492188 -5.679688 9.296875 -5.421875 L 9.28125 -5.390625 C 9.144531 -5.210938 9.054688 -5.035156 9.015625 -4.859375 C 8.984375 -4.679688 9.015625 -4.472656 9.109375 -4.234375 C 9.210938 -4.003906 9.378906 -3.726562 9.609375 -3.40625 C 9.847656 -3.09375 10.15625 -2.695312 10.53125 -2.21875 C 10.96875 -1.675781 11.332031 -1.148438 11.625 -0.640625 C 11.925781 -0.140625 12.128906 0.34375 12.234375 0.8125 C 12.335938 1.28125 12.335938 1.742188 12.234375 2.203125 C 12.128906 2.660156 11.898438 3.125 11.546875 3.59375 L 11.515625 3.625 C 11.117188 4.15625 10.664062 4.554688 10.15625 4.828125 C 9.644531 5.109375 9.109375 5.257812 8.546875 5.28125 C 7.984375 5.300781 7.40625 5.203125 6.8125 4.984375 C 6.21875 4.773438 5.628906 4.453125 5.046875 4.015625 Z M 5.046875 4.015625 "/></g></g></g><g fill="#388e3c" fill-opacity="1"><g transform="translate(140.153536, 37.854507)"><g><path d="M 11.109375 -3.953125 L 8.28125 -6.9375 L 10.265625 -8.828125 L 17.96875 -0.6875 L 15.984375 1.203125 L 13.15625 -1.78125 L 5.328125 5.625 L 3.28125 3.453125 Z M 11.109375 -3.953125 "/></g></g></g><g fill="#388e3c" fill-opacity="1"><g transform="translate(148.797396, 46.678977)"><g><path d="M 4.15625 7.046875 C 3.601562 6.171875 3.25 5.265625 3.09375 4.328125 C 2.9375 3.390625 2.953125 2.484375 3.140625 1.609375 C 3.335938 0.734375 3.695312 -0.0703125 4.21875 -0.8125 C 4.738281 -1.5625 5.410156 -2.191406 6.234375 -2.703125 L 6.265625 -2.734375 C 7.078125 -3.242188 7.9375 -3.570312 8.84375 -3.71875 C 9.75 -3.863281 10.640625 -3.835938 11.515625 -3.640625 C 12.398438 -3.453125 13.234375 -3.082031 14.015625 -2.53125 C 14.796875 -1.976562 15.46875 -1.253906 16.03125 -0.359375 C 16.582031 0.515625 16.9375 1.421875 17.09375 2.359375 C 17.25 3.296875 17.234375 4.195312 17.046875 5.0625 C 16.859375 5.9375 16.5 6.75 15.96875 7.5 C 15.445312 8.25 14.773438 8.878906 13.953125 9.390625 L 13.921875 9.40625 C 13.109375 9.925781 12.25 10.257812 11.34375 10.40625 C 10.4375 10.550781 9.539062 10.523438 8.65625 10.328125 C 7.78125 10.128906 6.953125 9.753906 6.171875 9.203125 C 5.390625 8.648438 4.71875 7.929688 4.15625 7.046875 Z M 6.515625 5.625 C 6.828125 6.113281 7.207031 6.515625 7.65625 6.828125 C 8.113281 7.140625 8.597656 7.34375 9.109375 7.4375 C 9.628906 7.53125 10.15625 7.523438 10.6875 7.421875 C 11.226562 7.316406 11.742188 7.113281 12.234375 6.8125 L 12.265625 6.78125 C 12.753906 6.476562 13.164062 6.101562 13.5 5.65625 C 13.832031 5.21875 14.0625 4.738281 14.1875 4.21875 C 14.3125 3.707031 14.335938 3.175781 14.265625 2.625 C 14.191406 2.082031 13.992188 1.554688 13.671875 1.046875 C 13.347656 0.535156 12.960938 0.132812 12.515625 -0.15625 C 12.066406 -0.457031 11.582031 -0.65625 11.0625 -0.75 C 10.550781 -0.84375 10.023438 -0.835938 9.484375 -0.734375 C 8.953125 -0.640625 8.441406 -0.4375 7.953125 -0.125 L 7.921875 -0.109375 C 7.429688 0.203125 7.019531 0.578125 6.6875 1.015625 C 6.363281 1.460938 6.132812 1.941406 6 2.453125 C 5.875 2.972656 5.84375 3.5 5.90625 4.03125 C 5.976562 4.570312 6.179688 5.101562 6.515625 5.625 Z M 6.515625 5.625 "/></g></g></g><g fill="#388e3c" fill-opacity="1"><g transform="translate(157.372186, 60.346668)"><g><path d="M 13.265625 -3.09375 L 14.1875 -0.53125 L 8.53125 8.296875 L 16.359375 5.4375 L 17.359375 8.1875 L 4.65625 12.8125 L 3.796875 10.4375 L 9.640625 1.34375 L 1.5625 4.28125 L 0.5625 1.53125 Z M 13.265625 -3.09375 "/></g></g></g><g fill="#388e3c" fill-opacity="1"><g transform="translate(162.441863, 74.557358)"><g><path d="M 13.59375 -0.515625 L 15.1875 9.546875 L 12.578125 9.96875 L 11.453125 2.8125 L 8.75 3.234375 L 9.75 9.53125 L 7.140625 9.953125 L 6.140625 3.65625 L 3.328125 4.109375 L 4.484375 11.375 L 1.875 11.78125 L 0.25 1.609375 Z M 13.59375 -0.515625 "/></g></g></g></g></g><g transform="matrix(1, 0, 0, 1, 101, 200)"><g clip-path="url(#7279f0d452)"><g fill="#388e3c" fill-opacity="1"><g transform="translate(4.741681, 6.830536)"><g><path d="M 1.6875 6.328125 C 1.375 5.285156 1.257812 4.285156 1.34375 3.328125 C 1.4375 2.367188 1.71875 1.398438 2.1875 0.421875 L 3.53125 1.015625 C 3.101562 1.867188 2.84375 2.6875 2.75 3.46875 C 2.65625 4.25 2.742188 5.09375 3.015625 6 C 3.273438 6.875 3.6875 7.507812 4.25 7.90625 C 4.820312 8.3125 5.429688 8.421875 6.078125 8.234375 L 6.125 8.21875 C 6.414062 8.125 6.664062 7.992188 6.875 7.828125 C 7.082031 7.660156 7.25 7.421875 7.375 7.109375 C 7.5 6.796875 7.578125 6.398438 7.609375 5.921875 C 7.640625 5.441406 7.628906 4.84375 7.578125 4.125 C 7.503906 3.320312 7.488281 2.613281 7.53125 2 C 7.582031 1.382812 7.707031 0.851562 7.90625 0.40625 C 8.101562 -0.03125 8.375 -0.390625 8.71875 -0.671875 C 9.0625 -0.960938 9.492188 -1.1875 10.015625 -1.34375 L 10.046875 -1.359375 C 10.554688 -1.503906 11.0625 -1.535156 11.5625 -1.453125 C 12.0625 -1.378906 12.519531 -1.195312 12.9375 -0.90625 C 13.363281 -0.613281 13.742188 -0.238281 14.078125 0.21875 C 14.410156 0.6875 14.671875 1.222656 14.859375 1.828125 C 15.140625 2.785156 15.25 3.660156 15.1875 4.453125 C 15.132812 5.242188 14.941406 6.046875 14.609375 6.859375 L 13.234375 6.359375 C 13.546875 5.597656 13.722656 4.878906 13.765625 4.203125 C 13.804688 3.535156 13.726562 2.867188 13.53125 2.203125 C 13.28125 1.359375 12.878906 0.75 12.328125 0.375 C 11.773438 0 11.203125 -0.0976562 10.609375 0.078125 L 10.578125 0.078125 C 10.265625 0.171875 10.003906 0.300781 9.796875 0.46875 C 9.585938 0.644531 9.421875 0.890625 9.296875 1.203125 C 9.171875 1.515625 9.085938 1.925781 9.046875 2.4375 C 9.015625 2.945312 9.039062 3.582031 9.125 4.34375 C 9.21875 5.875 9.082031 7.066406 8.71875 7.921875 C 8.363281 8.773438 7.691406 9.347656 6.703125 9.640625 L 6.65625 9.65625 C 6.113281 9.820312 5.582031 9.859375 5.0625 9.765625 C 4.539062 9.679688 4.0625 9.492188 3.625 9.203125 C 3.1875 8.910156 2.800781 8.515625 2.46875 8.015625 C 2.132812 7.523438 1.875 6.960938 1.6875 6.328125 Z M 1.6875 6.328125 "/></g></g></g><g fill="#388e3c" fill-opacity="1"><g transform="translate(8.637693, 19.587388)"><g><path d="M 2.09375 4.90625 C 1.832031 4.351562 1.6875 3.820312 1.65625 3.3125 C 1.632812 2.8125 1.710938 2.335938 1.890625 1.890625 C 2.066406 1.441406 2.335938 1.03125 2.703125 0.65625 C 3.066406 0.289062 3.515625 -0.0195312 4.046875 -0.28125 L 9.640625 -2.953125 L 10.296875 -1.609375 L 5.046875 0.90625 C 4.210938 1.3125 3.648438 1.84375 3.359375 2.5 C 3.078125 3.15625 3.128906 3.882812 3.515625 4.6875 C 3.703125 5.070312 3.9375 5.398438 4.21875 5.671875 C 4.507812 5.941406 4.835938 6.132812 5.203125 6.25 C 5.566406 6.363281 5.957031 6.40625 6.375 6.375 C 6.800781 6.351562 7.21875 6.242188 7.625 6.046875 L 12.78125 3.578125 L 13.40625 4.90625 L 4.40625 9.21875 L 3.78125 7.890625 L 5.34375 7.140625 C 4.707031 7.078125 4.097656 6.878906 3.515625 6.546875 C 2.941406 6.222656 2.46875 5.675781 2.09375 4.90625 Z M 2.09375 4.90625 "/></g></g></g><g fill="#388e3c" fill-opacity="1"><g transform="translate(14.248789, 31.19892)"><g><path d="M 9.140625 -4.328125 L 10 -3.109375 L 8.34375 -1.96875 C 8.707031 -1.957031 9.066406 -1.925781 9.421875 -1.875 C 9.785156 -1.832031 10.140625 -1.738281 10.484375 -1.59375 C 10.835938 -1.457031 11.171875 -1.265625 11.484375 -1.015625 C 11.796875 -0.773438 12.082031 -0.46875 12.34375 -0.09375 C 12.6875 0.394531 12.925781 0.941406 13.0625 1.546875 C 13.195312 2.148438 13.210938 2.765625 13.109375 3.390625 C 13.003906 4.015625 12.765625 4.617188 12.390625 5.203125 C 12.015625 5.785156 11.488281 6.3125 10.8125 6.78125 L 10.78125 6.796875 C 10.113281 7.265625 9.4375 7.570312 8.75 7.71875 C 8.070312 7.863281 7.421875 7.878906 6.796875 7.765625 C 6.179688 7.648438 5.613281 7.425781 5.09375 7.09375 C 4.570312 6.757812 4.140625 6.34375 3.796875 5.84375 C 3.535156 5.46875 3.34375 5.085938 3.21875 4.703125 C 3.09375 4.316406 3.019531 3.941406 3 3.578125 C 2.988281 3.210938 3.015625 2.851562 3.078125 2.5 C 3.140625 2.15625 3.234375 1.816406 3.359375 1.484375 L -0.75 4.34375 L -1.609375 3.125 Z M 4.75 4.859375 C 5.019531 5.253906 5.347656 5.578125 5.734375 5.828125 C 6.117188 6.085938 6.535156 6.253906 6.984375 6.328125 C 7.429688 6.398438 7.90625 6.375 8.40625 6.25 C 8.914062 6.132812 9.414062 5.90625 9.90625 5.5625 L 9.9375 5.53125 C 10.425781 5.195312 10.804688 4.816406 11.078125 4.390625 C 11.359375 3.972656 11.546875 3.535156 11.640625 3.078125 C 11.742188 2.617188 11.75 2.164062 11.65625 1.71875 C 11.5625 1.269531 11.378906 0.847656 11.109375 0.453125 C 10.835938 0.0664062 10.5 -0.242188 10.09375 -0.484375 C 9.695312 -0.734375 9.265625 -0.898438 8.796875 -0.984375 C 8.328125 -1.078125 7.84375 -1.066406 7.34375 -0.953125 C 6.84375 -0.847656 6.359375 -0.632812 5.890625 -0.3125 L 5.859375 -0.296875 C 5.378906 0.0351562 5 0.414062 4.71875 0.84375 C 4.445312 1.28125 4.269531 1.734375 4.1875 2.203125 C 4.113281 2.671875 4.117188 3.132812 4.203125 3.59375 C 4.296875 4.050781 4.476562 4.472656 4.75 4.859375 Z M 4.75 4.859375 "/></g></g></g><g fill="#388e3c" fill-opacity="1"><g transform="translate(22.225178, 42.535282)"><g><path d="M 8.296875 -5.78125 L 9.328125 -4.71875 L 7.890625 -3.3125 C 8.253906 -3.375 8.617188 -3.410156 8.984375 -3.421875 C 9.359375 -3.429688 9.722656 -3.394531 10.078125 -3.3125 C 10.441406 -3.226562 10.800781 -3.09375 11.15625 -2.90625 C 11.507812 -2.71875 11.847656 -2.460938 12.171875 -2.140625 C 12.578125 -1.710938 12.894531 -1.210938 13.125 -0.640625 C 13.363281 -0.0664062 13.484375 0.535156 13.484375 1.171875 C 13.484375 1.804688 13.347656 2.441406 13.078125 3.078125 C 12.804688 3.710938 12.378906 4.316406 11.796875 4.890625 L 11.765625 4.90625 C 11.179688 5.476562 10.566406 5.894531 9.921875 6.15625 C 9.273438 6.414062 8.632812 6.539062 8 6.53125 C 7.375 6.519531 6.773438 6.394531 6.203125 6.15625 C 5.628906 5.914062 5.132812 5.578125 4.71875 5.140625 C 4.394531 4.816406 4.140625 4.472656 3.953125 4.109375 C 3.765625 3.753906 3.628906 3.394531 3.546875 3.03125 C 3.472656 2.675781 3.441406 2.316406 3.453125 1.953125 C 3.460938 1.597656 3.492188 1.253906 3.546875 0.921875 L -0.03125 4.40625 L -1.0625 3.34375 Z M 5.5 4.015625 C 5.832031 4.359375 6.207031 4.625 6.625 4.8125 C 7.039062 5 7.476562 5.085938 7.9375 5.078125 C 8.394531 5.078125 8.859375 4.972656 9.328125 4.765625 C 9.804688 4.566406 10.265625 4.257812 10.703125 3.84375 L 10.71875 3.8125 C 11.144531 3.40625 11.460938 2.96875 11.671875 2.5 C 11.878906 2.03125 11.988281 1.5625 12 1.09375 C 12.007812 0.632812 11.929688 0.191406 11.765625 -0.234375 C 11.609375 -0.660156 11.363281 -1.046875 11.03125 -1.390625 C 10.695312 -1.722656 10.3125 -1.976562 9.875 -2.15625 C 9.445312 -2.332031 8.988281 -2.421875 8.5 -2.421875 C 8.019531 -2.429688 7.539062 -2.34375 7.0625 -2.15625 C 6.59375 -1.976562 6.15625 -1.6875 5.75 -1.28125 L 5.71875 -1.265625 C 5.300781 -0.859375 4.992188 -0.421875 4.796875 0.046875 C 4.597656 0.523438 4.5 1.003906 4.5 1.484375 C 4.5 1.960938 4.582031 2.421875 4.75 2.859375 C 4.914062 3.296875 5.164062 3.679688 5.5 4.015625 Z M 5.5 4.015625 "/></g></g></g><g fill="#388e3c" fill-opacity="1"><g transform="translate(31.964319, 52.375178)"><g><path d="M 4.875 3.875 C 4.269531 3.425781 3.789062 2.898438 3.4375 2.296875 C 3.09375 1.703125 2.875 1.078125 2.78125 0.421875 C 2.6875 -0.222656 2.722656 -0.867188 2.890625 -1.515625 C 3.054688 -2.171875 3.347656 -2.785156 3.765625 -3.359375 L 3.796875 -3.390625 C 4.210938 -3.960938 4.707031 -4.425781 5.28125 -4.78125 C 5.863281 -5.132812 6.484375 -5.367188 7.140625 -5.484375 C 7.796875 -5.597656 8.460938 -5.578125 9.140625 -5.421875 C 9.828125 -5.265625 10.472656 -4.960938 11.078125 -4.515625 C 11.679688 -4.078125 12.160156 -3.554688 12.515625 -2.953125 C 12.867188 -2.347656 13.085938 -1.71875 13.171875 -1.0625 C 13.265625 -0.40625 13.226562 0.242188 13.0625 0.890625 C 12.90625 1.546875 12.617188 2.160156 12.203125 2.734375 L 12.1875 2.765625 C 11.769531 3.335938 11.265625 3.796875 10.671875 4.140625 C 10.085938 4.492188 9.460938 4.722656 8.796875 4.828125 C 8.140625 4.941406 7.472656 4.921875 6.796875 4.765625 C 6.117188 4.609375 5.476562 4.3125 4.875 3.875 Z M 5.671875 2.828125 C 6.109375 3.148438 6.570312 3.359375 7.0625 3.453125 C 7.550781 3.546875 8.03125 3.546875 8.5 3.453125 C 8.96875 3.367188 9.410156 3.191406 9.828125 2.921875 C 10.242188 2.660156 10.609375 2.316406 10.921875 1.890625 L 10.953125 1.859375 C 11.273438 1.421875 11.5 0.957031 11.625 0.46875 C 11.75 -0.0195312 11.78125 -0.503906 11.71875 -0.984375 C 11.65625 -1.460938 11.503906 -1.921875 11.265625 -2.359375 C 11.035156 -2.796875 10.707031 -3.171875 10.28125 -3.484375 C 9.84375 -3.804688 9.378906 -4.015625 8.890625 -4.109375 C 8.410156 -4.203125 7.9375 -4.203125 7.46875 -4.109375 C 7 -4.015625 6.550781 -3.832031 6.125 -3.5625 C 5.707031 -3.300781 5.34375 -2.957031 5.03125 -2.53125 L 5.015625 -2.5 C 4.691406 -2.0625 4.46875 -1.597656 4.34375 -1.109375 C 4.21875 -0.628906 4.179688 -0.148438 4.234375 0.328125 C 4.296875 0.804688 4.445312 1.265625 4.6875 1.703125 C 4.925781 2.140625 5.253906 2.515625 5.671875 2.828125 Z M 5.671875 2.828125 "/></g></g></g><g fill="#388e3c" fill-opacity="1"><g transform="translate(42.788782, 60.069531)"><g><path d="M 6.25 -7.953125 L 7.546875 -7.234375 L 6.296875 -4.953125 C 6.660156 -5.234375 7.046875 -5.457031 7.453125 -5.625 C 7.859375 -5.800781 8.269531 -5.914062 8.6875 -5.96875 C 9.113281 -6.03125 9.539062 -6.015625 9.96875 -5.921875 C 10.394531 -5.828125 10.8125 -5.664062 11.21875 -5.4375 L 10.453125 -4.03125 L 10.359375 -4.078125 C 9.878906 -4.335938 9.378906 -4.5 8.859375 -4.5625 C 8.335938 -4.625 7.828125 -4.570312 7.328125 -4.40625 C 6.828125 -4.238281 6.347656 -3.953125 5.890625 -3.546875 C 5.429688 -3.148438 5.023438 -2.628906 4.671875 -1.984375 L 2.75 1.515625 L 1.453125 0.796875 Z M 6.25 -7.953125 "/></g></g></g><g fill="#388e3c" fill-opacity="1"><g transform="translate(50.207028, 64.101638)"><g><path d="M 4.546875 2.109375 C 4.179688 1.953125 3.859375 1.757812 3.578125 1.53125 C 3.296875 1.300781 3.082031 1.03125 2.9375 0.71875 C 2.789062 0.414062 2.722656 0.078125 2.734375 -0.296875 C 2.742188 -0.679688 2.847656 -1.109375 3.046875 -1.578125 L 5.390625 -7.125 L 4.109375 -7.671875 L 4.625 -8.875 L 5.90625 -8.328125 L 7.078125 -11.109375 L 8.4375 -10.53125 L 7.265625 -7.75 L 10.1875 -6.515625 L 9.671875 -5.3125 L 6.75 -6.546875 L 4.484375 -1.1875 C 4.242188 -0.601562 4.21875 -0.140625 4.40625 0.203125 C 4.59375 0.546875 4.914062 0.8125 5.375 1 C 5.613281 1.101562 5.847656 1.175781 6.078125 1.21875 C 6.304688 1.257812 6.566406 1.269531 6.859375 1.25 L 6.359375 2.421875 C 6.066406 2.453125 5.773438 2.441406 5.484375 2.390625 C 5.191406 2.335938 4.878906 2.242188 4.546875 2.109375 Z M 4.546875 2.109375 "/></g></g></g><g fill="#388e3c" fill-opacity="1"><g transform="translate(57.913938, 67.291912)"><g/></g></g><g fill="#388e3c" fill-opacity="1"><g transform="translate(64.213797, 69.670061)"><g><path d="M 2.453125 -9.703125 L 4.015625 -9.453125 L 5.28125 -1.109375 L 9.265625 -8.59375 L 10.484375 -8.390625 L 11.8125 0 L 15.71875 -7.46875 L 17.25 -7.21875 L 12.109375 2.125 L 10.84375 1.90625 L 9.515625 -6.296875 L 5.53125 1.015625 L 4.234375 0.796875 Z M 2.453125 -9.703125 "/></g></g></g><g fill="#388e3c" fill-opacity="1"><g transform="translate(81.517602, 72.113379)"><g><path d="M 2.0625 -13.765625 L 3.765625 -13.71875 L 3.71875 -12.078125 L 2.015625 -12.125 Z M 2.0625 -9.9375 L 3.546875 -9.90625 L 3.28125 0.078125 L 1.796875 0.046875 Z M 2.0625 -9.9375 "/></g></g></g><g fill="#388e3c" fill-opacity="1"><g transform="translate(87.108761, 72.295147)"><g><path d="M 5 -0.109375 C 4.613281 -0.0859375 4.238281 -0.117188 3.875 -0.203125 C 3.519531 -0.285156 3.210938 -0.429688 2.953125 -0.640625 C 2.691406 -0.859375 2.476562 -1.140625 2.3125 -1.484375 C 2.15625 -1.835938 2.0625 -2.265625 2.03125 -2.765625 L 1.6875 -8.78125 L 0.296875 -8.703125 L 0.21875 -10.015625 L 1.609375 -10.09375 L 1.4375 -13.109375 L 2.921875 -13.1875 L 3.09375 -10.171875 L 6.25 -10.359375 L 6.328125 -9.046875 L 3.171875 -8.859375 L 3.515625 -3.046875 C 3.546875 -2.421875 3.722656 -1.992188 4.046875 -1.765625 C 4.367188 -1.546875 4.773438 -1.453125 5.265625 -1.484375 C 5.523438 -1.492188 5.765625 -1.53125 5.984375 -1.59375 C 6.203125 -1.65625 6.4375 -1.765625 6.6875 -1.921875 L 6.765625 -0.640625 C 6.515625 -0.472656 6.25 -0.347656 5.96875 -0.265625 C 5.6875 -0.179688 5.363281 -0.128906 5 -0.109375 Z M 5 -0.109375 "/></g></g></g><g fill="#388e3c" fill-opacity="1"><g transform="translate(95.698971, 71.882092)"><g><path d="M -0.96875 -14.171875 L 0.5 -14.4375 L 1.578125 -8.6875 C 1.804688 -9.28125 2.148438 -9.8125 2.609375 -10.28125 C 3.066406 -10.757812 3.722656 -11.078125 4.578125 -11.234375 C 5.171875 -11.347656 5.71875 -11.351562 6.21875 -11.25 C 6.71875 -11.144531 7.160156 -10.945312 7.546875 -10.65625 C 7.929688 -10.375 8.253906 -10.003906 8.515625 -9.546875 C 8.773438 -9.097656 8.960938 -8.582031 9.078125 -8 L 10.21875 -1.90625 L 8.75 -1.640625 L 7.671875 -7.375 C 7.503906 -8.28125 7.132812 -8.953125 6.5625 -9.390625 C 6 -9.835938 5.28125 -9.976562 4.40625 -9.8125 C 3.988281 -9.738281 3.613281 -9.597656 3.28125 -9.390625 C 2.945312 -9.179688 2.671875 -8.914062 2.453125 -8.59375 C 2.242188 -8.269531 2.101562 -7.898438 2.03125 -7.484375 C 1.957031 -7.078125 1.960938 -6.648438 2.046875 -6.203125 L 3.09375 -0.578125 L 1.625 -0.3125 Z M -0.96875 -14.171875 "/></g></g></g><g fill="#388e3c" fill-opacity="1"><g transform="translate(108.035753, 69.353331)"><g/></g></g><g fill="#388e3c" fill-opacity="1"><g transform="translate(114.349407, 67.579085)"><g><path d="M -3.796875 -13.109375 L 0.828125 -15.171875 C 1.523438 -15.484375 2.195312 -15.675781 2.84375 -15.75 C 3.5 -15.832031 4.101562 -15.796875 4.65625 -15.640625 C 5.21875 -15.484375 5.710938 -15.210938 6.140625 -14.828125 C 6.578125 -14.453125 6.929688 -13.957031 7.203125 -13.34375 L 7.234375 -13.3125 C 7.523438 -12.644531 7.648438 -12.003906 7.609375 -11.390625 C 7.578125 -10.773438 7.421875 -10.195312 7.140625 -9.65625 C 6.859375 -9.113281 6.457031 -8.625 5.9375 -8.1875 C 5.414062 -7.75 4.828125 -7.382812 4.171875 -7.09375 L 1.1875 -5.75 L 3.140625 -1.40625 L 1.734375 -0.78125 Z M 3.671875 -8.390625 C 4.171875 -8.617188 4.601562 -8.890625 4.96875 -9.203125 C 5.332031 -9.515625 5.609375 -9.859375 5.796875 -10.234375 C 5.984375 -10.617188 6.082031 -11.007812 6.09375 -11.40625 C 6.101562 -11.800781 6.015625 -12.207031 5.828125 -12.625 L 5.8125 -12.65625 C 5.414062 -13.539062 4.8125 -14.070312 4 -14.25 C 3.195312 -14.425781 2.300781 -14.289062 1.3125 -13.84375 L -1.8125 -12.453125 L 0.625 -7.03125 Z M 3.671875 -8.390625 "/></g></g></g><g fill="#388e3c" fill-opacity="1"><g transform="translate(126.984991, 61.787644)"><g><path d="M 4.578125 -2.734375 C 4.066406 -2.410156 3.5625 -2.195312 3.0625 -2.09375 C 2.5625 -2 2.078125 -2.007812 1.609375 -2.125 C 1.148438 -2.238281 0.707031 -2.453125 0.28125 -2.765625 C -0.132812 -3.085938 -0.503906 -3.492188 -0.828125 -3.984375 L -4.234375 -9.171875 L -2.984375 -10 L 0.21875 -5.125 C 0.726562 -4.351562 1.328125 -3.867188 2.015625 -3.671875 C 2.710938 -3.484375 3.429688 -3.628906 4.171875 -4.109375 C 4.535156 -4.347656 4.828125 -4.628906 5.046875 -4.953125 C 5.273438 -5.273438 5.421875 -5.625 5.484375 -6 C 5.554688 -6.375 5.550781 -6.765625 5.46875 -7.171875 C 5.382812 -7.585938 5.21875 -7.988281 4.96875 -8.375 L 1.828125 -13.15625 L 3.046875 -13.953125 L 8.53125 -5.609375 L 7.3125 -4.8125 L 6.359375 -6.265625 C 6.378906 -5.617188 6.265625 -4.988281 6.015625 -4.375 C 5.773438 -3.757812 5.296875 -3.210938 4.578125 -2.734375 Z M 4.578125 -2.734375 "/></g></g></g><g fill="#388e3c" fill-opacity="1"><g transform="translate(137.476581, 54.669425)"><g><path d="M -5.25 -8.65625 L -4.125 -9.625 L -2.4375 -7.640625 C -2.5625 -8.078125 -2.628906 -8.515625 -2.640625 -8.953125 C -2.660156 -9.390625 -2.625 -9.816406 -2.53125 -10.234375 C -2.4375 -10.660156 -2.269531 -11.054688 -2.03125 -11.421875 C -1.800781 -11.785156 -1.507812 -12.113281 -1.15625 -12.40625 L -0.109375 -11.203125 L -0.1875 -11.125 C -0.59375 -10.78125 -0.914062 -10.375 -1.15625 -9.90625 C -1.394531 -9.4375 -1.523438 -8.9375 -1.546875 -8.40625 C -1.566406 -7.882812 -1.46875 -7.335938 -1.25 -6.765625 C -1.039062 -6.191406 -0.695312 -5.625 -0.21875 -5.0625 L 2.375 -2.046875 L 1.25 -1.078125 Z M -5.25 -8.65625 "/></g></g></g><g fill="#388e3c" fill-opacity="1"><g transform="translate(144.11957, 49.111547)"><g><path d="M -6.359375 -7.875 L -5.359375 -8.984375 L -3.859375 -7.640625 C -3.953125 -7.992188 -4.015625 -8.351562 -4.046875 -8.71875 C -4.085938 -9.09375 -4.078125 -9.460938 -4.015625 -9.828125 C -3.953125 -10.191406 -3.84375 -10.554688 -3.6875 -10.921875 C -3.53125 -11.285156 -3.300781 -11.640625 -3 -11.984375 C -2.601562 -12.429688 -2.125 -12.789062 -1.5625 -13.0625 C -1.007812 -13.332031 -0.421875 -13.488281 0.203125 -13.53125 C 0.835938 -13.582031 1.484375 -13.492188 2.140625 -13.265625 C 2.796875 -13.035156 3.429688 -12.644531 4.046875 -12.09375 L 4.078125 -12.078125 C 4.679688 -11.535156 5.132812 -10.953125 5.4375 -10.328125 C 5.75 -9.703125 5.921875 -9.070312 5.953125 -8.4375 C 5.984375 -7.8125 5.894531 -7.207031 5.6875 -6.625 C 5.488281 -6.039062 5.1875 -5.519531 4.78125 -5.0625 C 4.476562 -4.71875 4.15625 -4.441406 3.8125 -4.234375 C 3.46875 -4.023438 3.117188 -3.867188 2.765625 -3.765625 C 2.421875 -3.660156 2.066406 -3.597656 1.703125 -3.578125 C 1.347656 -3.554688 1.003906 -3.566406 0.671875 -3.609375 L 4.40625 -0.28125 L 3.40625 0.828125 Z M 3.609375 -5.75 C 3.929688 -6.113281 4.171875 -6.507812 4.328125 -6.9375 C 4.484375 -7.375 4.539062 -7.820312 4.5 -8.28125 C 4.46875 -8.738281 4.335938 -9.195312 4.109375 -9.65625 C 3.878906 -10.113281 3.535156 -10.539062 3.078125 -10.9375 L 3.0625 -10.96875 C 2.613281 -11.363281 2.148438 -11.644531 1.671875 -11.8125 C 1.191406 -11.988281 0.71875 -12.066406 0.25 -12.046875 C -0.207031 -12.023438 -0.644531 -11.914062 -1.0625 -11.71875 C -1.476562 -11.53125 -1.847656 -11.253906 -2.171875 -10.890625 C -2.484375 -10.546875 -2.707031 -10.148438 -2.84375 -9.703125 C -2.988281 -9.265625 -3.046875 -8.800781 -3.015625 -8.3125 C -2.992188 -7.832031 -2.875 -7.363281 -2.65625 -6.90625 C -2.4375 -6.445312 -2.113281 -6.023438 -1.6875 -5.640625 L -1.65625 -5.625 C -1.21875 -5.238281 -0.753906 -4.957031 -0.265625 -4.78125 C 0.210938 -4.613281 0.6875 -4.550781 1.15625 -4.59375 C 1.632812 -4.632812 2.082031 -4.75 2.5 -4.9375 C 2.925781 -5.132812 3.296875 -5.40625 3.609375 -5.75 Z M 3.609375 -5.75 "/></g></g></g><g fill="#388e3c" fill-opacity="1"><g transform="translate(153.248915, 38.701988)"><g><path d="M 3.515625 -5.140625 C 3.117188 -4.503906 2.632812 -3.988281 2.0625 -3.59375 C 1.488281 -3.207031 0.878906 -2.945312 0.234375 -2.8125 C -0.410156 -2.675781 -1.0625 -2.664062 -1.71875 -2.78125 C -2.382812 -2.894531 -3.015625 -3.144531 -3.609375 -3.53125 L -3.65625 -3.546875 C -4.25 -3.929688 -4.742188 -4.394531 -5.140625 -4.9375 C -5.546875 -5.488281 -5.828125 -6.085938 -5.984375 -6.734375 C -6.140625 -7.378906 -6.160156 -8.046875 -6.046875 -8.734375 C -5.941406 -9.429688 -5.6875 -10.097656 -5.28125 -10.734375 C -4.882812 -11.367188 -4.394531 -11.878906 -3.8125 -12.265625 C -3.238281 -12.660156 -2.628906 -12.925781 -1.984375 -13.0625 C -1.335938 -13.207031 -0.679688 -13.222656 -0.015625 -13.109375 C 0.640625 -12.992188 1.269531 -12.742188 1.875 -12.359375 L 1.890625 -12.34375 C 2.492188 -11.96875 2.988281 -11.5 3.375 -10.9375 C 3.769531 -10.375 4.046875 -9.765625 4.203125 -9.109375 C 4.367188 -8.460938 4.394531 -7.796875 4.28125 -7.109375 C 4.175781 -6.421875 3.921875 -5.765625 3.515625 -5.140625 Z M 2.421875 -5.859375 C 2.703125 -6.316406 2.875 -6.796875 2.9375 -7.296875 C 3.007812 -7.796875 2.984375 -8.269531 2.859375 -8.71875 C 2.734375 -9.175781 2.519531 -9.601562 2.21875 -10 C 1.925781 -10.40625 1.5625 -10.75 1.125 -11.03125 L 1.078125 -11.046875 C 0.617188 -11.335938 0.144531 -11.53125 -0.34375 -11.625 C -0.84375 -11.71875 -1.328125 -11.710938 -1.796875 -11.609375 C -2.273438 -11.515625 -2.722656 -11.335938 -3.140625 -11.078125 C -3.554688 -10.816406 -3.910156 -10.460938 -4.203125 -10.015625 C -4.484375 -9.554688 -4.65625 -9.078125 -4.71875 -8.578125 C -4.78125 -8.085938 -4.75 -7.613281 -4.625 -7.15625 C -4.507812 -6.707031 -4.300781 -6.28125 -4 -5.875 C -3.695312 -5.476562 -3.316406 -5.132812 -2.859375 -4.84375 L -2.84375 -4.828125 C -2.382812 -4.546875 -1.90625 -4.351562 -1.40625 -4.25 C -0.914062 -4.15625 -0.4375 -4.15625 0.03125 -4.25 C 0.5 -4.34375 0.941406 -4.523438 1.359375 -4.796875 C 1.785156 -5.066406 2.140625 -5.421875 2.421875 -5.859375 Z M 2.421875 -5.859375 "/></g></g></g><g fill="#388e3c" fill-opacity="1"><g transform="translate(160.239361, 27.320818)"><g><path d="M 2.203125 -4.453125 C 1.898438 -3.785156 1.476562 -3.171875 0.9375 -2.609375 C 0.40625 -2.054688 -0.179688 -1.609375 -0.828125 -1.265625 L -1.5 -2.390625 C -0.894531 -2.722656 -0.375 -3.113281 0.0625 -3.5625 C 0.5 -4.007812 0.84375 -4.503906 1.09375 -5.046875 C 1.332031 -5.597656 1.398438 -6.101562 1.296875 -6.5625 C 1.203125 -7.03125 0.929688 -7.363281 0.484375 -7.5625 L 0.4375 -7.578125 C 0.21875 -7.671875 0 -7.695312 -0.21875 -7.65625 C -0.4375 -7.613281 -0.65625 -7.507812 -0.875 -7.34375 C -1.09375 -7.1875 -1.3125 -6.988281 -1.53125 -6.75 C -1.75 -6.519531 -1.960938 -6.273438 -2.171875 -6.015625 C -2.429688 -5.710938 -2.703125 -5.410156 -2.984375 -5.109375 C -3.265625 -4.804688 -3.566406 -4.550781 -3.890625 -4.34375 C -4.210938 -4.132812 -4.554688 -4.003906 -4.921875 -3.953125 C -5.285156 -3.898438 -5.679688 -3.972656 -6.109375 -4.171875 L -6.125 -4.171875 C -6.519531 -4.347656 -6.84375 -4.582031 -7.09375 -4.875 C -7.351562 -5.175781 -7.535156 -5.515625 -7.640625 -5.890625 C -7.742188 -6.265625 -7.769531 -6.671875 -7.71875 -7.109375 C -7.675781 -7.554688 -7.554688 -8.003906 -7.359375 -8.453125 C -7.109375 -9.015625 -6.765625 -9.539062 -6.328125 -10.03125 C -5.890625 -10.519531 -5.414062 -10.929688 -4.90625 -11.265625 L -4.140625 -10.203125 C -4.585938 -9.890625 -4.992188 -9.535156 -5.359375 -9.140625 C -5.734375 -8.753906 -6.019531 -8.335938 -6.21875 -7.890625 C -6.457031 -7.347656 -6.519531 -6.863281 -6.40625 -6.4375 C -6.300781 -6.019531 -6.0625 -5.722656 -5.6875 -5.546875 L -5.65625 -5.546875 C -5.4375 -5.441406 -5.21875 -5.414062 -5 -5.46875 C -4.789062 -5.53125 -4.578125 -5.640625 -4.359375 -5.796875 C -4.148438 -5.960938 -3.929688 -6.164062 -3.703125 -6.40625 C -3.484375 -6.65625 -3.257812 -6.910156 -3.03125 -7.171875 C -2.757812 -7.472656 -2.484375 -7.769531 -2.203125 -8.0625 C -1.929688 -8.351562 -1.628906 -8.59375 -1.296875 -8.78125 C -0.972656 -8.976562 -0.628906 -9.097656 -0.265625 -9.140625 C 0.0859375 -9.191406 0.46875 -9.125 0.875 -8.9375 L 0.921875 -8.921875 C 1.359375 -8.722656 1.703125 -8.460938 1.953125 -8.140625 C 2.203125 -7.828125 2.378906 -7.472656 2.484375 -7.078125 C 2.597656 -6.691406 2.628906 -6.269531 2.578125 -5.8125 C 2.523438 -5.363281 2.398438 -4.910156 2.203125 -4.453125 Z M 2.203125 -4.453125 "/></g></g></g><g fill="#388e3c" fill-opacity="1"><g transform="translate(164.508345, 17.763263)"><g><path d="M 1.90625 -5.734375 C 1.707031 -5.066406 1.40625 -4.476562 1 -3.96875 C 0.59375 -3.457031 0.109375 -3.046875 -0.453125 -2.734375 C -1.015625 -2.429688 -1.632812 -2.242188 -2.3125 -2.171875 C -3 -2.097656 -3.71875 -2.171875 -4.46875 -2.390625 L -4.5 -2.390625 C -5.1875 -2.597656 -5.800781 -2.90625 -6.34375 -3.3125 C -6.894531 -3.71875 -7.335938 -4.1875 -7.671875 -4.71875 C -8.003906 -5.257812 -8.21875 -5.851562 -8.3125 -6.5 C -8.40625 -7.144531 -8.359375 -7.796875 -8.171875 -8.453125 C -7.960938 -9.160156 -7.640625 -9.75 -7.203125 -10.21875 C -6.773438 -10.695312 -6.273438 -11.0625 -5.703125 -11.3125 C -5.140625 -11.570312 -4.523438 -11.707031 -3.859375 -11.71875 C -3.191406 -11.738281 -2.5 -11.644531 -1.78125 -11.4375 C -1.6875 -11.40625 -1.609375 -11.378906 -1.546875 -11.359375 C -1.484375 -11.347656 -1.414062 -11.320312 -1.34375 -11.28125 L -3.546875 -3.671875 C -3.015625 -3.578125 -2.519531 -3.570312 -2.0625 -3.65625 C -1.601562 -3.738281 -1.1875 -3.890625 -0.8125 -4.109375 C -0.445312 -4.328125 -0.140625 -4.609375 0.109375 -4.953125 C 0.359375 -5.296875 0.546875 -5.6875 0.671875 -6.125 C 0.867188 -6.789062 0.914062 -7.394531 0.8125 -7.9375 C 0.707031 -8.488281 0.503906 -9.019531 0.203125 -9.53125 L 1.25 -10.1875 C 1.65625 -9.550781 1.929688 -8.875 2.078125 -8.15625 C 2.222656 -7.445312 2.164062 -6.640625 1.90625 -5.734375 Z M -2.8125 -10.171875 C -3.25 -10.253906 -3.6875 -10.28125 -4.125 -10.25 C -4.5625 -10.226562 -4.960938 -10.132812 -5.328125 -9.96875 C -5.703125 -9.800781 -6.03125 -9.5625 -6.3125 -9.25 C -6.601562 -8.9375 -6.816406 -8.539062 -6.953125 -8.0625 C -7.078125 -7.644531 -7.109375 -7.234375 -7.046875 -6.828125 C -6.992188 -6.421875 -6.859375 -6.035156 -6.640625 -5.671875 C -6.429688 -5.316406 -6.15625 -4.992188 -5.8125 -4.703125 C -5.46875 -4.410156 -5.066406 -4.171875 -4.609375 -3.984375 Z M -2.8125 -10.171875 "/></g></g></g></g></g><path stroke-linecap="butt" transform="matrix(0.75, 0, 0, 0.75, 89.776076, 190.248312)" fill="none" stroke-linejoin="miter" d="M 0.00169006 3.002252 L 50.053777 3.002252 " stroke="#388e3c" stroke-width="6" stroke-opacity="1" stroke-miterlimit="4"/><path stroke-linecap="butt" transform="matrix(0.75, 0, 0, 0.75, 247.628542, 190.248312)" fill="none" stroke-linejoin="miter" d="M 0.000485881 3.002252 L 50.052573 3.002252 " stroke="#388e3c" stroke-width="6" stroke-opacity="1" stroke-miterlimit="4"/></svg>