<svg xmlns="http://www.w3.org/2000/svg" xmlns:xlink="http://www.w3.org/1999/xlink" width="500" zoomAndPan="magnify" viewBox="0 0 375 374.999991" height="500" preserveAspectRatio="xMidYMid meet" version="1.0"><defs><g/><clipPath id="711c9ec5c7"><path d="M 121 89.695312 L 211 89.695312 L 211 151 L 121 151 Z M 121 89.695312 " clip-rule="nonzero"/></clipPath><clipPath id="d33735b355"><path d="M 164 180 L 255 180 L 255 241.195312 L 164 241.195312 Z M 164 180 " clip-rule="nonzero"/></clipPath><clipPath id="327c6ed244"><path d="M 202 99 L 263.378906 99 L 263.378906 189 L 202 189 Z M 202 99 " clip-rule="nonzero"/></clipPath></defs><rect x="-37.5" width="450" fill="#ffffff" y="-37.499999" height="449.999989" fill-opacity="1"/><rect x="-37.5" width="450" fill="#ffffff" y="-37.499999" height="449.999989" fill-opacity="1"/><g clip-path="url(#711c9ec5c7)"><path fill="#683998" d="M 180.351562 141.863281 C 187.15625 145.433594 191.097656 143.445312 178.609375 131.648438 C 169.414062 122.960938 187.171875 118.445312 201.664062 118.851562 C 213.09375 119.167969 208.070312 112.929688 196.226562 113.097656 C 191.933594 113.15625 186.121094 113.632812 178.796875 115.609375 C 178.796875 115.609375 182.121094 111.121094 199.683594 107.960938 C 205.535156 106.910156 203.757812 103.199219 196.476562 103.660156 C 192.105469 103.9375 184.15625 104.269531 175.753906 109.699219 C 175.753906 109.699219 180.945312 104.058594 194.273438 99.832031 C 198.5 98.492188 196.480469 95.816406 190.898438 96.640625 C 187.40625 97.160156 177.296875 99.941406 169.675781 105.242188 C 169.675781 105.242188 176.097656 98.535156 185.464844 95.683594 C 189.828125 94.359375 188.433594 90.628906 179.796875 92.871094 C 169.816406 95.457031 151.148438 108.8125 121.183594 139.335938 C 121.183594 139.335938 141.515625 114.222656 156.355469 102.882812 C 164.582031 96.597656 172.019531 92.542969 179.226562 90.671875 C 182.230469 89.894531 184.804688 89.699219 186.664062 90.117188 C 189.789062 90.8125 190.113281 92.941406 190.136719 93.578125 C 190.148438 93.886719 190.117188 94.1875 190.046875 94.480469 C 190.230469 94.449219 190.40625 94.421875 190.566406 94.394531 C 192.289062 94.144531 193.882812 94.160156 195.179688 94.449219 C 198.433594 95.175781 198.773438 97.289062 198.800781 97.921875 C 198.839844 98.796875 198.542969 100.285156 196.441406 101.390625 C 198.140625 101.289062 199.671875 101.386719 200.984375 101.683594 C 205.1875 102.617188 205.464844 105.136719 205.449219 105.886719 C 205.429688 106.894531 204.863281 109.335938 200.085938 110.195312 C 198.945312 110.398438 197.867188 110.609375 196.855469 110.824219 C 199.078125 110.832031 201.171875 111.054688 203.085938 111.480469 C 207.957031 112.566406 210.667969 114.769531 210.347656 117.375 C 210.015625 120.011719 207.074219 121.269531 201.601562 121.117188 C 189.445312 120.777344 179.644531 123.761719 178.449219 126.648438 C 178.023438 127.675781 179.148438 129.039062 180.167969 130 C 189.457031 138.773438 189.644531 141.957031 188.605469 143.914062 C 188.121094 144.832031 186.8125 146.265625 183.546875 145.535156 C 182.292969 145.257812 180.863281 144.695312 179.292969 143.871094 C 175.019531 141.617188 171.125 140.089844 167.722656 139.332031 C 162.742188 138.222656 158.796875 138.738281 156.003906 140.871094 C 151.574219 144.25 151.230469 150.964844 151.1875 150.855469 C 149.910156 147.628906 151.644531 126.796875 180.351562 141.863281 " fill-opacity="1" fill-rule="nonzero"/></g><g clip-path="url(#d33735b355)"><path fill="#f6ac0d" d="M 194.914062 189.042969 C 188.109375 185.472656 184.171875 187.460938 196.65625 199.253906 C 205.855469 207.945312 188.09375 212.460938 173.605469 212.054688 C 162.171875 211.738281 167.199219 217.976562 179.042969 217.808594 C 183.335938 217.75 189.144531 217.269531 196.472656 215.296875 C 196.472656 215.296875 193.144531 219.785156 175.585938 222.945312 C 169.734375 223.996094 171.507812 227.707031 178.792969 227.246094 C 183.164062 226.96875 191.113281 226.636719 199.515625 221.207031 C 199.515625 221.207031 194.324219 226.847656 180.992188 231.074219 C 176.769531 232.414062 178.789062 235.089844 184.367188 234.265625 C 187.863281 233.746094 197.972656 230.964844 205.59375 225.664062 C 205.59375 225.664062 199.171875 232.371094 189.804688 235.222656 C 185.441406 236.546875 186.835938 240.273438 195.472656 238.035156 C 205.449219 235.445312 224.117188 222.09375 254.082031 191.570312 C 254.082031 191.570312 233.753906 216.683594 218.914062 228.023438 C 210.683594 234.308594 203.25 238.363281 196.042969 240.230469 C 193.035156 241.011719 190.460938 241.207031 188.605469 240.789062 C 185.476562 240.09375 185.15625 237.964844 185.132812 237.328125 C 185.121094 237.019531 185.152344 236.71875 185.222656 236.421875 C 185.035156 236.457031 184.863281 236.484375 184.699219 236.507812 C 182.980469 236.761719 181.386719 236.746094 180.089844 236.457031 C 176.835938 235.730469 176.492188 233.617188 176.464844 232.984375 C 176.425781 232.109375 176.726562 230.621094 178.828125 229.515625 C 177.125 229.617188 175.597656 229.519531 174.28125 229.222656 C 170.078125 228.289062 169.800781 225.769531 169.816406 225.019531 C 169.839844 224.011719 170.402344 221.570312 175.183594 220.710938 C 176.320312 220.507812 177.398438 220.296875 178.414062 220.082031 C 176.1875 220.074219 174.09375 219.851562 172.179688 219.425781 C 167.3125 218.339844 164.597656 216.136719 164.921875 213.53125 C 165.25 210.894531 168.191406 209.636719 173.667969 209.785156 C 185.820312 210.125 195.625 207.144531 196.820312 204.257812 C 197.242188 203.230469 196.117188 201.867188 195.097656 200.90625 C 185.8125 192.132812 185.621094 188.949219 186.660156 186.992188 C 187.148438 186.070312 188.453125 184.640625 191.71875 185.367188 C 192.972656 185.648438 194.402344 186.210938 195.972656 187.035156 C 200.246094 189.289062 204.140625 190.816406 207.546875 191.574219 C 212.527344 192.683594 216.46875 192.167969 219.265625 190.035156 C 223.695312 186.65625 224.035156 179.941406 224.078125 180.050781 C 225.359375 183.277344 223.621094 204.109375 194.914062 189.042969 " fill-opacity="1" fill-rule="nonzero"/></g><path fill="#36ab9c" d="M 164.042969 172.734375 C 167.613281 165.929688 165.625 161.992188 153.832031 174.476562 C 145.140625 183.675781 140.625 165.914062 141.03125 151.421875 C 141.351562 139.992188 135.113281 145.015625 135.277344 156.863281 C 135.335938 161.15625 135.816406 166.964844 137.789062 174.292969 C 137.789062 174.292969 133.300781 170.964844 130.140625 153.402344 C 129.089844 147.550781 125.378906 149.328125 125.84375 156.613281 C 126.121094 160.980469 126.449219 168.929688 131.878906 177.332031 C 131.878906 177.332031 126.238281 172.144531 122.015625 158.8125 C 120.675781 154.585938 117.996094 156.605469 118.824219 162.1875 C 119.339844 165.679688 122.121094 175.789062 127.425781 183.414062 C 127.425781 183.414062 120.714844 176.988281 117.867188 167.621094 C 116.539062 163.257812 112.8125 164.652344 115.050781 173.292969 C 117.640625 183.269531 130.992188 201.9375 161.515625 231.902344 C 161.515625 231.902344 136.402344 211.574219 125.0625 196.730469 C 118.777344 188.503906 114.722656 181.066406 112.855469 173.863281 C 112.074219 170.855469 111.882812 168.28125 112.296875 166.421875 C 112.992188 163.296875 115.121094 162.976562 115.757812 162.953125 C 116.066406 162.941406 116.371094 162.96875 116.664062 163.039062 C 116.628906 162.855469 116.601562 162.679688 116.578125 162.519531 C 116.324219 160.796875 116.339844 159.203125 116.628906 157.90625 C 117.355469 154.65625 119.472656 154.3125 120.101562 154.285156 C 120.980469 154.246094 122.464844 154.542969 123.570312 156.644531 C 123.472656 154.945312 123.570312 153.417969 123.863281 152.101562 C 124.796875 147.898438 127.316406 147.621094 128.066406 147.636719 C 129.074219 147.660156 131.515625 148.222656 132.375 153 C 132.582031 154.140625 132.789062 155.21875 133.003906 156.234375 C 133.015625 154.007812 133.234375 151.914062 133.660156 150 C 134.746094 145.132812 136.949219 142.417969 139.554688 142.742188 C 142.191406 143.070312 143.453125 146.011719 143.300781 151.488281 C 142.960938 163.640625 145.941406 173.441406 148.828125 174.636719 C 149.855469 175.0625 151.21875 173.9375 152.183594 172.917969 C 160.953125 163.628906 164.140625 163.441406 166.097656 164.480469 C 167.015625 164.96875 168.445312 166.273438 167.71875 169.539062 C 167.4375 170.792969 166.878906 172.222656 166.050781 173.792969 C 163.796875 178.066406 162.269531 181.960938 161.511719 185.363281 C 160.402344 190.34375 160.917969 194.289062 163.050781 197.085938 C 166.429688 201.511719 173.144531 201.855469 173.039062 201.898438 C 169.808594 203.179688 148.976562 201.441406 164.042969 172.734375 " fill-opacity="1" fill-rule="nonzero"/><g clip-path="url(#327c6ed244)"><path fill="#ed0e64" d="M 211.226562 158.171875 C 207.652344 164.976562 209.644531 168.914062 221.4375 156.429688 C 230.125 147.230469 234.640625 164.992188 234.238281 179.484375 C 233.917969 190.914062 240.15625 185.890625 239.992188 174.042969 C 239.929688 169.75 239.453125 163.941406 237.476562 156.613281 C 237.476562 156.613281 241.96875 159.941406 245.125 177.503906 C 246.179688 183.355469 249.886719 181.578125 249.425781 174.292969 C 249.148438 169.925781 248.816406 161.976562 243.386719 153.570312 C 243.386719 153.570312 249.027344 158.761719 253.253906 172.09375 C 254.59375 176.320312 257.273438 174.300781 256.445312 168.71875 C 255.925781 165.222656 253.144531 155.113281 247.84375 147.492188 C 247.84375 147.492188 254.550781 153.914062 257.402344 163.285156 C 258.726562 167.644531 262.457031 166.253906 260.214844 157.613281 C 257.628906 147.636719 244.273438 128.96875 213.75 99.003906 C 213.75 99.003906 238.867188 119.335938 250.203125 134.175781 C 256.492188 142.402344 260.542969 149.835938 262.414062 157.042969 C 263.191406 160.050781 263.386719 162.625 262.972656 164.484375 C 262.273438 167.609375 260.148438 167.929688 259.511719 167.953125 C 259.199219 167.964844 258.898438 167.9375 258.605469 167.867188 C 258.636719 168.050781 258.667969 168.226562 258.691406 168.386719 C 258.945312 170.105469 258.925781 171.703125 258.636719 173 C 257.914062 176.25 255.796875 176.59375 255.164062 176.621094 C 254.289062 176.660156 252.800781 176.363281 251.699219 174.261719 C 251.796875 175.960938 251.699219 177.488281 251.40625 178.804688 C 250.46875 183.007812 247.949219 183.285156 247.199219 183.269531 C 246.191406 183.246094 243.75 182.683594 242.890625 177.902344 C 242.6875 176.765625 242.476562 175.6875 242.265625 174.671875 C 242.253906 176.898438 242.03125 178.992188 241.605469 180.90625 C 240.519531 185.773438 238.316406 188.488281 235.714844 188.164062 C 233.074219 187.835938 231.816406 184.894531 231.96875 179.417969 C 232.308594 167.265625 229.328125 157.460938 226.441406 156.269531 C 225.410156 155.84375 224.050781 156.96875 223.085938 157.988281 C 214.3125 167.277344 211.128906 167.464844 209.171875 166.425781 C 208.253906 165.9375 206.820312 164.632812 207.550781 161.367188 C 207.828125 160.113281 208.390625 158.683594 209.214844 157.113281 C 211.46875 152.839844 212.996094 148.945312 213.753906 145.542969 C 214.867188 140.558594 214.347656 136.617188 212.214844 133.820312 C 208.835938 129.394531 202.121094 129.050781 202.230469 129.007812 C 205.460938 127.726562 226.289062 129.464844 211.226562 158.171875 " fill-opacity="1" fill-rule="nonzero"/></g><g fill="#683998" fill-opacity="1"><g transform="translate(94.208069, 269.415172)"><g><path d="M 0.484375 -18.734375 C 0.484375 -19.523438 1.046875 -19.925781 2.171875 -19.9375 L 11.609375 -19.9375 L 11.609375 -19.234375 L 10.625 -19.03125 C 10.007812 -18.90625 9.632812 -18.660156 9.5 -18.296875 C 9.375 -17.929688 9.3125 -17.304688 9.3125 -16.421875 L 9.3125 -10.359375 L 17.9375 -18 C 18.3125 -18.320312 18.40625 -18.570312 18.21875 -18.75 C 18.039062 -18.925781 17.8125 -19.035156 17.53125 -19.078125 L 16.515625 -19.234375 L 16.515625 -19.9375 L 23.015625 -19.9375 L 23.015625 -19.25 L 22.25 -19.109375 C 21.382812 -18.972656 20.570312 -18.578125 19.8125 -17.921875 L 12 -11 L 21.078125 -1.828125 C 21.722656 -1.171875 22.429688 -0.789062 23.203125 -0.6875 L 23.203125 0 L 16.03125 0 L 16.03125 -0.703125 L 17.171875 -0.953125 C 17.640625 -1.085938 17.882812 -1.207031 17.90625 -1.3125 C 17.894531 -1.457031 17.695312 -1.726562 17.3125 -2.125 L 10.265625 -9.5 L 9.3125 -8.65625 L 9.3125 -3.5 C 9.3125 -2.5 9.398438 -1.847656 9.578125 -1.546875 C 9.753906 -1.242188 10.109375 -1.03125 10.640625 -0.90625 L 11.609375 -0.6875 L 11.609375 0 L 5.109375 0 L 5.109375 -0.734375 L 6.25 -0.984375 C 6.65625 -1.078125 6.890625 -1.203125 6.953125 -1.359375 C 7.023438 -1.515625 7.0625 -1.914062 7.0625 -2.5625 L 7.0625 -14.640625 C 7.0625 -16.160156 6.941406 -17.265625 6.703125 -17.953125 C 6.472656 -18.640625 5.988281 -18.988281 5.25 -19 C 4.90625 -19 4.460938 -18.78125 3.921875 -18.34375 C 3.171875 -17.738281 2.519531 -17.429688 1.96875 -17.421875 C 1.425781 -17.421875 1.039062 -17.566406 0.8125 -17.859375 C 0.59375 -18.160156 0.484375 -18.453125 0.484375 -18.734375 Z M 0.484375 -18.734375 "/></g></g></g><g fill="#683998" fill-opacity="1"><g transform="translate(127.201738, 269.415172)"><g><path d="M 5.34375 -13.703125 L 5.34375 -3.5 C 5.34375 -2.46875 5.414062 -1.796875 5.5625 -1.484375 C 5.707031 -1.179688 6.046875 -0.976562 6.578125 -0.875 L 7.578125 -0.6875 L 7.578125 0 L 1.21875 0 L 1.21875 -0.703125 L 2.375 -0.953125 C 2.789062 -1.046875 3.050781 -1.175781 3.15625 -1.34375 C 3.238281 -1.53125 3.28125 -1.9375 3.28125 -2.5625 L 3.28125 -10.109375 C 3.28125 -10.878906 3.25 -11.347656 3.1875 -11.515625 C 3.03125 -11.898438 2.40625 -12.09375 1.3125 -12.09375 L 1.21875 -12.671875 Z M 2.484375 -20.25 C 2.484375 -20.644531 2.613281 -20.976562 2.875 -21.25 C 3.132812 -21.519531 3.460938 -21.65625 3.859375 -21.65625 C 4.234375 -21.65625 4.554688 -21.519531 4.828125 -21.25 C 5.109375 -20.976562 5.25 -20.644531 5.25 -20.25 C 5.25 -19.875 5.109375 -19.554688 4.828125 -19.296875 C 4.554688 -19.035156 4.234375 -18.90625 3.859375 -18.90625 C 3.460938 -18.90625 3.132812 -19.035156 2.875 -19.296875 C 2.613281 -19.554688 2.484375 -19.875 2.484375 -20.25 Z M 2.484375 -20.25 "/></g></g></g><g fill="#683998" fill-opacity="1"><g transform="translate(145.233952, 269.415172)"><g><path d="M 9.546875 -12.28125 C 7.953125 -12.28125 6.550781 -11.851562 5.34375 -11 L 5.34375 -3.5 C 5.34375 -2.46875 5.414062 -1.796875 5.5625 -1.484375 C 5.707031 -1.179688 6.046875 -0.976562 6.578125 -0.875 L 7.578125 -0.6875 L 7.578125 0 L 1.21875 0 L 1.21875 -0.703125 L 2.375 -0.953125 C 2.789062 -1.046875 3.050781 -1.175781 3.15625 -1.34375 C 3.238281 -1.53125 3.28125 -1.9375 3.28125 -2.5625 L 3.28125 -10.109375 C 3.28125 -10.910156 3.207031 -11.414062 3.0625 -11.625 C 2.789062 -11.925781 2.207031 -12.082031 1.3125 -12.09375 L 1.21875 -12.671875 L 5.34375 -13.703125 L 5.34375 -12.234375 C 7.238281 -13.265625 8.863281 -13.78125 10.21875 -13.78125 C 11.914062 -13.78125 13.0625 -13.023438 13.65625 -11.515625 C 13.945312 -10.773438 14.09375 -9.875 14.09375 -8.8125 L 14.09375 -3.46875 C 14.09375 -2.4375 14.164062 -1.765625 14.3125 -1.453125 C 14.46875 -1.148438 14.800781 -0.953125 15.3125 -0.859375 L 16.296875 -0.65625 L 16.296875 0 L 9.96875 0 L 9.96875 -0.6875 L 11.109375 -0.921875 C 11.535156 -1.015625 11.789062 -1.148438 11.875 -1.328125 C 11.96875 -1.515625 12.015625 -1.921875 12.015625 -2.546875 L 12.015625 -8.28125 C 11.992188 -10.925781 11.171875 -12.257812 9.546875 -12.28125 Z M 9.546875 -12.28125 "/></g></g></g><g fill="#683998" fill-opacity="1"><g transform="translate(171.861044, 269.415172)"><g><path d="M 0.953125 -5.984375 C 0.953125 -9.160156 2.019531 -11.410156 4.15625 -12.734375 C 5.300781 -13.429688 6.570312 -13.78125 7.96875 -13.78125 C 8.800781 -13.78125 9.640625 -13.609375 10.484375 -13.265625 L 10.890625 -13.109375 L 10.890625 -19.46875 C 10.890625 -20.238281 10.859375 -20.707031 10.796875 -20.875 C 10.640625 -21.269531 10.007812 -21.46875 8.90625 -21.46875 L 8.828125 -22.03125 L 12.953125 -23.078125 L 12.953125 -2.03125 C 12.953125 -1.269531 13.335938 -0.890625 14.109375 -0.890625 C 14.160156 -0.890625 14.390625 -0.910156 14.796875 -0.953125 C 15.203125 -1.003906 15.425781 -1.03125 15.46875 -1.03125 L 15.46875 -0.359375 L 11.578125 0.546875 L 10.96875 -1.140625 C 10.945312 -1.128906 10.894531 -1.082031 10.8125 -1 C 9.539062 0.03125 8.285156 0.546875 7.046875 0.546875 C 4.472656 0.546875 2.679688 -0.503906 1.671875 -2.609375 C 1.191406 -3.640625 0.953125 -4.765625 0.953125 -5.984375 Z M 3.109375 -6.8125 C 3.109375 -4.488281 3.648438 -2.820312 4.734375 -1.8125 C 5.441406 -1.164062 6.316406 -0.835938 7.359375 -0.828125 C 8.410156 -0.828125 9.257812 -1.117188 9.90625 -1.703125 C 10.207031 -1.984375 10.519531 -2.34375 10.84375 -2.78125 L 10.84375 -11.390625 C 10.582031 -11.921875 10.046875 -12.296875 9.234375 -12.515625 C 8.847656 -12.617188 8.441406 -12.671875 8.015625 -12.671875 C 6.296875 -12.671875 4.972656 -11.835938 4.046875 -10.171875 C 3.453125 -9.054688 3.140625 -7.9375 3.109375 -6.8125 Z M 3.109375 -6.8125 "/></g></g></g><g fill="#683998" fill-opacity="1"><g transform="translate(197.499642, 269.415172)"><g><path d="M 2.84375 -3.484375 L 2.84375 -16.40625 C 2.84375 -17.414062 2.753906 -18.070312 2.578125 -18.375 C 2.398438 -18.675781 2.050781 -18.882812 1.53125 -19 L 0.546875 -19.203125 L 0.546875 -19.9375 L 7.0625 -19.9375 L 7.0625 -19.1875 L 5.9375 -18.9375 C 5.53125 -18.84375 5.296875 -18.710938 5.234375 -18.546875 C 5.148438 -18.378906 5.109375 -17.96875 5.109375 -17.3125 L 5.109375 -1.03125 L 11.3125 -1.03125 C 12.125 -1.03125 12.664062 -1.660156 12.9375 -2.921875 C 13.007812 -3.285156 13.046875 -3.613281 13.046875 -3.90625 L 13.921875 -3.90625 L 13.921875 0 L 0.640625 0 L 0.640625 -0.671875 L 1.609375 -0.875 C 2.203125 -0.96875 2.5625 -1.191406 2.6875 -1.546875 C 2.789062 -1.890625 2.84375 -2.535156 2.84375 -3.484375 Z M 2.84375 -3.484375 "/></g></g></g><g fill="#683998" fill-opacity="1"><g transform="translate(221.613612, 269.415172)"><g><path d="M 5.34375 -13.703125 L 5.34375 -3.5 C 5.34375 -2.46875 5.414062 -1.796875 5.5625 -1.484375 C 5.707031 -1.179688 6.046875 -0.976562 6.578125 -0.875 L 7.578125 -0.6875 L 7.578125 0 L 1.21875 0 L 1.21875 -0.703125 L 2.375 -0.953125 C 2.789062 -1.046875 3.050781 -1.175781 3.15625 -1.34375 C 3.238281 -1.53125 3.28125 -1.9375 3.28125 -2.5625 L 3.28125 -10.109375 C 3.28125 -10.878906 3.25 -11.347656 3.1875 -11.515625 C 3.03125 -11.898438 2.40625 -12.09375 1.3125 -12.09375 L 1.21875 -12.671875 Z M 2.484375 -20.25 C 2.484375 -20.644531 2.613281 -20.976562 2.875 -21.25 C 3.132812 -21.519531 3.460938 -21.65625 3.859375 -21.65625 C 4.234375 -21.65625 4.554688 -21.519531 4.828125 -21.25 C 5.109375 -20.976562 5.25 -20.644531 5.25 -20.25 C 5.25 -19.875 5.109375 -19.554688 4.828125 -19.296875 C 4.554688 -19.035156 4.234375 -18.90625 3.859375 -18.90625 C 3.460938 -18.90625 3.132812 -19.035156 2.875 -19.296875 C 2.613281 -19.554688 2.484375 -19.875 2.484375 -20.25 Z M 2.484375 -20.25 "/></g></g></g><g fill="#683998" fill-opacity="1"><g transform="translate(239.645825, 269.415172)"><g><path d="M 9.546875 -12.28125 C 7.953125 -12.28125 6.550781 -11.851562 5.34375 -11 L 5.34375 -3.5 C 5.34375 -2.46875 5.414062 -1.796875 5.5625 -1.484375 C 5.707031 -1.179688 6.046875 -0.976562 6.578125 -0.875 L 7.578125 -0.6875 L 7.578125 0 L 1.21875 0 L 1.21875 -0.703125 L 2.375 -0.953125 C 2.789062 -1.046875 3.050781 -1.175781 3.15625 -1.34375 C 3.238281 -1.53125 3.28125 -1.9375 3.28125 -2.5625 L 3.28125 -10.109375 C 3.28125 -10.910156 3.207031 -11.414062 3.0625 -11.625 C 2.789062 -11.925781 2.207031 -12.082031 1.3125 -12.09375 L 1.21875 -12.671875 L 5.34375 -13.703125 L 5.34375 -12.234375 C 7.238281 -13.265625 8.863281 -13.78125 10.21875 -13.78125 C 11.914062 -13.78125 13.0625 -13.023438 13.65625 -11.515625 C 13.945312 -10.773438 14.09375 -9.875 14.09375 -8.8125 L 14.09375 -3.46875 C 14.09375 -2.4375 14.164062 -1.765625 14.3125 -1.453125 C 14.46875 -1.148438 14.800781 -0.953125 15.3125 -0.859375 L 16.296875 -0.65625 L 16.296875 0 L 9.96875 0 L 9.96875 -0.6875 L 11.109375 -0.921875 C 11.535156 -1.015625 11.789062 -1.148438 11.875 -1.328125 C 11.96875 -1.515625 12.015625 -1.921875 12.015625 -2.546875 L 12.015625 -8.28125 C 11.992188 -10.925781 11.171875 -12.257812 9.546875 -12.28125 Z M 9.546875 -12.28125 "/></g></g></g><g fill="#683998" fill-opacity="1"><g transform="translate(266.272918, 269.415172)"><g><path d="M 5.0625 -23.109375 L 5.0625 -8.15625 L 9.5 -11.6875 C 10 -12.113281 10 -12.394531 9.5 -12.53125 L 8.765625 -12.734375 L 8.765625 -13.4375 L 14.140625 -13.4375 L 14.140625 -12.75 C 13.234375 -12.613281 12.3125 -12.242188 11.375 -11.640625 L 6.96875 -8.453125 L 11.6875 -3.296875 C 12.675781 -2.234375 13.269531 -1.609375 13.46875 -1.421875 C 14.070312 -0.890625 14.640625 -0.625 15.171875 -0.625 L 15.171875 0 L 9.359375 0 L 9.359375 -0.625 C 10.210938 -0.71875 10.617188 -0.957031 10.578125 -1.34375 C 10.546875 -1.476562 10.472656 -1.613281 10.359375 -1.75 L 5.0625 -7.703125 L 5.0625 -3.796875 C 5.0625 -2.753906 5.144531 -2.046875 5.3125 -1.671875 C 5.507812 -1.234375 6.160156 -0.882812 7.265625 -0.625 L 7.265625 0 L 0.953125 0 L 0.953125 -0.625 C 1.023438 -0.644531 1.265625 -0.691406 1.671875 -0.765625 C 2.597656 -0.960938 3.0625 -1.632812 3.0625 -2.78125 L 3.0625 -19.6875 C 3.0625 -20.363281 3.019531 -20.785156 2.9375 -20.953125 C 2.738281 -21.316406 2.132812 -21.5 1.125 -21.5 L 1.03125 -22.03125 Z M 5.0625 -23.109375 "/></g></g></g><g fill="#683998" fill-opacity="1"><g transform="translate(89.047542, 282.894591)"><g><path d="M 3 0.109375 C 2.25 0.109375 1.648438 -0.0976562 1.203125 -0.515625 C 0.753906 -0.941406 0.507812 -1.503906 0.46875 -2.203125 L 1.234375 -2.203125 C 1.265625 -1.691406 1.4375 -1.296875 1.75 -1.015625 C 2.0625 -0.734375 2.484375 -0.59375 3.015625 -0.59375 C 3.546875 -0.59375 3.957031 -0.710938 4.25 -0.953125 C 4.539062 -1.203125 4.6875 -1.53125 4.6875 -1.9375 C 4.6875 -2.25 4.601562 -2.5 4.4375 -2.6875 C 4.269531 -2.882812 4.066406 -3.039062 3.828125 -3.15625 C 3.585938 -3.269531 3.257812 -3.398438 2.84375 -3.546875 C 2.363281 -3.703125 1.976562 -3.847656 1.6875 -3.984375 C 1.40625 -4.128906 1.160156 -4.332031 0.953125 -4.59375 C 0.753906 -4.863281 0.65625 -5.21875 0.65625 -5.65625 C 0.65625 -6.03125 0.742188 -6.367188 0.921875 -6.671875 C 1.109375 -6.972656 1.375 -7.207031 1.71875 -7.375 C 2.0625 -7.550781 2.46875 -7.640625 2.9375 -7.640625 C 3.414062 -7.640625 3.828125 -7.539062 4.171875 -7.34375 C 4.523438 -7.15625 4.796875 -6.890625 4.984375 -6.546875 C 5.179688 -6.210938 5.289062 -5.828125 5.3125 -5.390625 L 4.5625 -5.390625 C 4.53125 -5.867188 4.367188 -6.242188 4.078125 -6.515625 C 3.796875 -6.796875 3.414062 -6.9375 2.9375 -6.9375 C 2.457031 -6.9375 2.082031 -6.816406 1.8125 -6.578125 C 1.539062 -6.335938 1.40625 -6.03125 1.40625 -5.65625 C 1.40625 -5.363281 1.484375 -5.125 1.640625 -4.9375 C 1.804688 -4.757812 2.003906 -4.617188 2.234375 -4.515625 C 2.460938 -4.410156 2.78125 -4.289062 3.1875 -4.15625 C 3.664062 -4 4.054688 -3.847656 4.359375 -3.703125 C 4.660156 -3.554688 4.914062 -3.335938 5.125 -3.046875 C 5.332031 -2.765625 5.4375 -2.394531 5.4375 -1.9375 C 5.4375 -1.320312 5.222656 -0.828125 4.796875 -0.453125 C 4.378906 -0.078125 3.78125 0.109375 3 0.109375 Z M 3 0.109375 "/></g></g></g><g fill="#683998" fill-opacity="1"><g transform="translate(96.630008, 282.894591)"><g><path d="M 2.609375 0.109375 C 2.171875 0.109375 1.8125 -0.0390625 1.53125 -0.34375 C 1.257812 -0.65625 1.125 -1.078125 1.125 -1.609375 L 1.125 -4.71875 L 0.15625 -4.71875 L 0.15625 -5.375 L 0.578125 -5.375 C 1.015625 -5.375 1.234375 -5.59375 1.234375 -6.03125 L 1.234375 -6.8125 L 1.8125 -6.8125 L 1.8125 -5.375 L 3.078125 -5.375 L 3.078125 -4.71875 L 1.8125 -4.71875 L 1.8125 -1.609375 C 1.8125 -1.253906 1.890625 -0.988281 2.046875 -0.8125 C 2.210938 -0.632812 2.4375 -0.546875 2.71875 -0.546875 C 2.84375 -0.546875 2.960938 -0.566406 3.078125 -0.609375 L 3.078125 0.015625 C 2.921875 0.078125 2.765625 0.109375 2.609375 0.109375 Z M 2.609375 0.109375 "/></g></g></g><g fill="#683998" fill-opacity="1"><g transform="translate(101.692382, 282.894591)"><g><path d="M 0.78125 0 L 0.78125 -5.375 L 1.296875 -5.375 L 1.46875 -4.65625 L 1.53125 -4.65625 C 1.664062 -4.863281 1.863281 -5.050781 2.125 -5.21875 C 2.394531 -5.394531 2.679688 -5.484375 2.984375 -5.484375 C 3.148438 -5.484375 3.28125 -5.472656 3.375 -5.453125 L 3.375 -4.75 C 3.257812 -4.78125 3.132812 -4.796875 3 -4.796875 C 2.550781 -4.796875 2.179688 -4.640625 1.890625 -4.328125 C 1.609375 -4.023438 1.46875 -3.609375 1.46875 -3.078125 L 1.46875 0 Z M 0.78125 0 "/></g></g></g><g fill="#683998" fill-opacity="1"><g transform="translate(106.765525, 282.894591)"><g><path d="M 2.953125 0.109375 C 2.492188 0.109375 2.066406 -0.0078125 1.671875 -0.25 C 1.285156 -0.488281 0.976562 -0.820312 0.75 -1.25 C 0.53125 -1.675781 0.421875 -2.15625 0.421875 -2.6875 C 0.421875 -3.21875 0.53125 -3.695312 0.75 -4.125 C 0.976562 -4.550781 1.285156 -4.882812 1.671875 -5.125 C 2.066406 -5.363281 2.492188 -5.484375 2.953125 -5.484375 C 3.410156 -5.484375 3.832031 -5.363281 4.21875 -5.125 C 4.601562 -4.882812 4.910156 -4.550781 5.140625 -4.125 C 5.367188 -3.695312 5.484375 -3.21875 5.484375 -2.6875 C 5.484375 -2.15625 5.367188 -1.675781 5.140625 -1.25 C 4.910156 -0.820312 4.601562 -0.488281 4.21875 -0.25 C 3.832031 -0.0078125 3.410156 0.109375 2.953125 0.109375 Z M 2.953125 -0.546875 C 3.273438 -0.546875 3.578125 -0.632812 3.859375 -0.8125 C 4.140625 -1 4.363281 -1.253906 4.53125 -1.578125 C 4.695312 -1.898438 4.78125 -2.269531 4.78125 -2.6875 C 4.78125 -3.101562 4.695312 -3.472656 4.53125 -3.796875 C 4.363281 -4.128906 4.140625 -4.382812 3.859375 -4.5625 C 3.578125 -4.738281 3.273438 -4.828125 2.953125 -4.828125 C 2.617188 -4.828125 2.3125 -4.738281 2.03125 -4.5625 C 1.75 -4.382812 1.523438 -4.128906 1.359375 -3.796875 C 1.203125 -3.472656 1.125 -3.101562 1.125 -2.6875 C 1.125 -2.269531 1.203125 -1.898438 1.359375 -1.578125 C 1.523438 -1.253906 1.75 -1 2.03125 -0.8125 C 2.3125 -0.632812 2.617188 -0.546875 2.953125 -0.546875 Z M 2.953125 -0.546875 "/></g></g></g><g fill="#683998" fill-opacity="1"><g transform="translate(114.283365, 282.894591)"><g><path d="M 0.78125 0 L 0.78125 -5.375 L 1.296875 -5.375 L 1.46875 -4.65625 L 1.53125 -4.65625 C 1.675781 -4.875 1.882812 -5.066406 2.15625 -5.234375 C 2.4375 -5.398438 2.753906 -5.484375 3.109375 -5.484375 C 3.515625 -5.484375 3.878906 -5.382812 4.203125 -5.1875 C 4.523438 -5 4.78125 -4.722656 4.96875 -4.359375 C 5.15625 -4.003906 5.25 -3.59375 5.25 -3.125 L 5.25 0 L 4.546875 0 L 4.546875 -3.125 C 4.546875 -3.65625 4.40625 -4.070312 4.125 -4.375 C 3.851562 -4.675781 3.492188 -4.828125 3.046875 -4.828125 C 2.578125 -4.828125 2.195312 -4.675781 1.90625 -4.375 C 1.613281 -4.070312 1.46875 -3.65625 1.46875 -3.125 L 1.46875 0 Z M 0.78125 0 "/></g></g></g><g fill="#683998" fill-opacity="1"><g transform="translate(121.8766, 282.894591)"><g><path d="M 2.9375 2.046875 C 2.351562 2.046875 1.859375 1.894531 1.453125 1.59375 C 1.046875 1.300781 0.78125 0.910156 0.65625 0.421875 L 1.359375 0.421875 C 1.453125 0.722656 1.640625 0.957031 1.921875 1.125 C 2.203125 1.300781 2.539062 1.390625 2.9375 1.390625 C 3.414062 1.390625 3.800781 1.242188 4.09375 0.953125 C 4.394531 0.671875 4.546875 0.289062 4.546875 -0.1875 L 4.546875 -1.03125 L 4.484375 -1.03125 C 4.421875 -0.925781 4.3125 -0.804688 4.15625 -0.671875 C 4 -0.546875 3.804688 -0.429688 3.578125 -0.328125 C 3.347656 -0.234375 3.097656 -0.1875 2.828125 -0.1875 C 2.390625 -0.1875 1.984375 -0.300781 1.609375 -0.53125 C 1.242188 -0.757812 0.953125 -1.078125 0.734375 -1.484375 C 0.523438 -1.890625 0.421875 -2.335938 0.421875 -2.828125 C 0.421875 -3.328125 0.523438 -3.78125 0.734375 -4.1875 C 0.953125 -4.59375 1.242188 -4.910156 1.609375 -5.140625 C 1.984375 -5.367188 2.390625 -5.484375 2.828125 -5.484375 C 3.097656 -5.484375 3.347656 -5.4375 3.578125 -5.34375 C 3.804688 -5.25 4 -5.132812 4.15625 -5 C 4.3125 -4.863281 4.421875 -4.75 4.484375 -4.65625 L 4.546875 -4.65625 L 4.71875 -5.375 L 5.25 -5.375 L 5.25 -0.1875 C 5.25 0.25 5.148438 0.632812 4.953125 0.96875 C 4.753906 1.3125 4.484375 1.578125 4.140625 1.765625 C 3.796875 1.953125 3.394531 2.046875 2.9375 2.046875 Z M 2.828125 -0.84375 C 3.128906 -0.84375 3.410156 -0.925781 3.671875 -1.09375 C 3.929688 -1.269531 4.140625 -1.507812 4.296875 -1.8125 C 4.460938 -2.113281 4.546875 -2.453125 4.546875 -2.828125 C 4.546875 -3.210938 4.460938 -3.554688 4.296875 -3.859375 C 4.140625 -4.160156 3.929688 -4.394531 3.671875 -4.5625 C 3.410156 -4.738281 3.128906 -4.828125 2.828125 -4.828125 C 2.523438 -4.828125 2.238281 -4.738281 1.96875 -4.5625 C 1.707031 -4.394531 1.5 -4.160156 1.34375 -3.859375 C 1.195312 -3.554688 1.125 -3.210938 1.125 -2.828125 C 1.125 -2.453125 1.195312 -2.113281 1.34375 -1.8125 C 1.5 -1.507812 1.707031 -1.269531 1.96875 -1.09375 C 2.238281 -0.925781 2.523438 -0.84375 2.828125 -0.84375 Z M 2.828125 -0.84375 "/></g></g></g><g fill="#683998" fill-opacity="1"><g transform="translate(129.51291, 282.894591)"><g><path d="M 5.359375 -2.859375 C 5.359375 -2.628906 5.34375 -2.457031 5.3125 -2.34375 L 1.140625 -2.34375 C 1.203125 -1.789062 1.398438 -1.351562 1.734375 -1.03125 C 2.066406 -0.707031 2.476562 -0.546875 2.96875 -0.546875 C 3.632812 -0.546875 4.132812 -0.832031 4.46875 -1.40625 L 5.171875 -1.40625 C 5.003906 -0.96875 4.71875 -0.601562 4.3125 -0.3125 C 3.914062 -0.03125 3.460938 0.109375 2.953125 0.109375 C 2.472656 0.109375 2.039062 -0.0078125 1.65625 -0.25 C 1.28125 -0.488281 0.976562 -0.816406 0.75 -1.234375 C 0.53125 -1.660156 0.421875 -2.144531 0.421875 -2.6875 C 0.421875 -3.21875 0.53125 -3.695312 0.75 -4.125 C 0.976562 -4.550781 1.285156 -4.882812 1.671875 -5.125 C 2.066406 -5.363281 2.492188 -5.484375 2.953125 -5.484375 C 3.398438 -5.484375 3.804688 -5.367188 4.171875 -5.140625 C 4.546875 -4.910156 4.835938 -4.59375 5.046875 -4.1875 C 5.253906 -3.78125 5.359375 -3.335938 5.359375 -2.859375 Z M 2.953125 -4.828125 C 2.648438 -4.828125 2.367188 -4.75 2.109375 -4.59375 C 1.847656 -4.445312 1.628906 -4.226562 1.453125 -3.9375 C 1.273438 -3.65625 1.164062 -3.335938 1.125 -2.984375 L 4.65625 -2.984375 C 4.613281 -3.523438 4.4375 -3.96875 4.125 -4.3125 C 3.8125 -4.65625 3.421875 -4.828125 2.953125 -4.828125 Z M 2.953125 -4.828125 "/></g></g></g><g fill="#683998" fill-opacity="1"><g transform="translate(136.912293, 282.894591)"><g><path d="M 0.78125 0 L 0.78125 -5.375 L 1.296875 -5.375 L 1.46875 -4.65625 L 1.53125 -4.65625 C 1.664062 -4.863281 1.863281 -5.050781 2.125 -5.21875 C 2.394531 -5.394531 2.679688 -5.484375 2.984375 -5.484375 C 3.148438 -5.484375 3.28125 -5.472656 3.375 -5.453125 L 3.375 -4.75 C 3.257812 -4.78125 3.132812 -4.796875 3 -4.796875 C 2.550781 -4.796875 2.179688 -4.640625 1.890625 -4.328125 C 1.609375 -4.023438 1.46875 -3.609375 1.46875 -3.078125 L 1.46875 0 Z M 0.78125 0 "/></g></g></g><g fill="#683998" fill-opacity="1"><g transform="translate(141.985436, 282.894591)"><g/></g></g><g fill="#683998" fill-opacity="1"><g transform="translate(146.164703, 282.894591)"><g><path d="M 3.265625 0 L 2.515625 0 L 2.515625 -6.84375 L 0.1875 -6.84375 L 0.1875 -7.53125 L 5.59375 -7.53125 L 5.59375 -6.84375 L 3.265625 -6.84375 Z M 3.265625 0 "/></g></g></g><g fill="#683998" fill-opacity="1"><g transform="translate(153.553318, 282.894591)"><g><path d="M 2.953125 0.109375 C 2.492188 0.109375 2.066406 -0.0078125 1.671875 -0.25 C 1.285156 -0.488281 0.976562 -0.820312 0.75 -1.25 C 0.53125 -1.675781 0.421875 -2.15625 0.421875 -2.6875 C 0.421875 -3.21875 0.53125 -3.695312 0.75 -4.125 C 0.976562 -4.550781 1.285156 -4.882812 1.671875 -5.125 C 2.066406 -5.363281 2.492188 -5.484375 2.953125 -5.484375 C 3.410156 -5.484375 3.832031 -5.363281 4.21875 -5.125 C 4.601562 -4.882812 4.910156 -4.550781 5.140625 -4.125 C 5.367188 -3.695312 5.484375 -3.21875 5.484375 -2.6875 C 5.484375 -2.15625 5.367188 -1.675781 5.140625 -1.25 C 4.910156 -0.820312 4.601562 -0.488281 4.21875 -0.25 C 3.832031 -0.0078125 3.410156 0.109375 2.953125 0.109375 Z M 2.953125 -0.546875 C 3.273438 -0.546875 3.578125 -0.632812 3.859375 -0.8125 C 4.140625 -1 4.363281 -1.253906 4.53125 -1.578125 C 4.695312 -1.898438 4.78125 -2.269531 4.78125 -2.6875 C 4.78125 -3.101562 4.695312 -3.472656 4.53125 -3.796875 C 4.363281 -4.128906 4.140625 -4.382812 3.859375 -4.5625 C 3.578125 -4.738281 3.273438 -4.828125 2.953125 -4.828125 C 2.617188 -4.828125 2.3125 -4.738281 2.03125 -4.5625 C 1.75 -4.382812 1.523438 -4.128906 1.359375 -3.796875 C 1.203125 -3.472656 1.125 -3.101562 1.125 -2.6875 C 1.125 -2.269531 1.203125 -1.898438 1.359375 -1.578125 C 1.523438 -1.253906 1.75 -1 2.03125 -0.8125 C 2.3125 -0.632812 2.617188 -0.546875 2.953125 -0.546875 Z M 2.953125 -0.546875 "/></g></g></g><g fill="#683998" fill-opacity="1"><g transform="translate(161.071158, 282.894591)"><g><path d="M 2.9375 2.046875 C 2.351562 2.046875 1.859375 1.894531 1.453125 1.59375 C 1.046875 1.300781 0.78125 0.910156 0.65625 0.421875 L 1.359375 0.421875 C 1.453125 0.722656 1.640625 0.957031 1.921875 1.125 C 2.203125 1.300781 2.539062 1.390625 2.9375 1.390625 C 3.414062 1.390625 3.800781 1.242188 4.09375 0.953125 C 4.394531 0.671875 4.546875 0.289062 4.546875 -0.1875 L 4.546875 -1.03125 L 4.484375 -1.03125 C 4.421875 -0.925781 4.3125 -0.804688 4.15625 -0.671875 C 4 -0.546875 3.804688 -0.429688 3.578125 -0.328125 C 3.347656 -0.234375 3.097656 -0.1875 2.828125 -0.1875 C 2.390625 -0.1875 1.984375 -0.300781 1.609375 -0.53125 C 1.242188 -0.757812 0.953125 -1.078125 0.734375 -1.484375 C 0.523438 -1.890625 0.421875 -2.335938 0.421875 -2.828125 C 0.421875 -3.328125 0.523438 -3.78125 0.734375 -4.1875 C 0.953125 -4.59375 1.242188 -4.910156 1.609375 -5.140625 C 1.984375 -5.367188 2.390625 -5.484375 2.828125 -5.484375 C 3.097656 -5.484375 3.347656 -5.4375 3.578125 -5.34375 C 3.804688 -5.25 4 -5.132812 4.15625 -5 C 4.3125 -4.863281 4.421875 -4.75 4.484375 -4.65625 L 4.546875 -4.65625 L 4.71875 -5.375 L 5.25 -5.375 L 5.25 -0.1875 C 5.25 0.25 5.148438 0.632812 4.953125 0.96875 C 4.753906 1.3125 4.484375 1.578125 4.140625 1.765625 C 3.796875 1.953125 3.394531 2.046875 2.9375 2.046875 Z M 2.828125 -0.84375 C 3.128906 -0.84375 3.410156 -0.925781 3.671875 -1.09375 C 3.929688 -1.269531 4.140625 -1.507812 4.296875 -1.8125 C 4.460938 -2.113281 4.546875 -2.453125 4.546875 -2.828125 C 4.546875 -3.210938 4.460938 -3.554688 4.296875 -3.859375 C 4.140625 -4.160156 3.929688 -4.394531 3.671875 -4.5625 C 3.410156 -4.738281 3.128906 -4.828125 2.828125 -4.828125 C 2.523438 -4.828125 2.238281 -4.738281 1.96875 -4.5625 C 1.707031 -4.394531 1.5 -4.160156 1.34375 -3.859375 C 1.195312 -3.554688 1.125 -3.210938 1.125 -2.828125 C 1.125 -2.453125 1.195312 -2.113281 1.34375 -1.8125 C 1.5 -1.507812 1.707031 -1.269531 1.96875 -1.09375 C 2.238281 -0.925781 2.523438 -0.84375 2.828125 -0.84375 Z M 2.828125 -0.84375 "/></g></g></g><g fill="#683998" fill-opacity="1"><g transform="translate(168.707468, 282.894591)"><g><path d="M 5.359375 -2.859375 C 5.359375 -2.628906 5.34375 -2.457031 5.3125 -2.34375 L 1.140625 -2.34375 C 1.203125 -1.789062 1.398438 -1.351562 1.734375 -1.03125 C 2.066406 -0.707031 2.476562 -0.546875 2.96875 -0.546875 C 3.632812 -0.546875 4.132812 -0.832031 4.46875 -1.40625 L 5.171875 -1.40625 C 5.003906 -0.96875 4.71875 -0.601562 4.3125 -0.3125 C 3.914062 -0.03125 3.460938 0.109375 2.953125 0.109375 C 2.472656 0.109375 2.039062 -0.0078125 1.65625 -0.25 C 1.28125 -0.488281 0.976562 -0.816406 0.75 -1.234375 C 0.53125 -1.660156 0.421875 -2.144531 0.421875 -2.6875 C 0.421875 -3.21875 0.53125 -3.695312 0.75 -4.125 C 0.976562 -4.550781 1.285156 -4.882812 1.671875 -5.125 C 2.066406 -5.363281 2.492188 -5.484375 2.953125 -5.484375 C 3.398438 -5.484375 3.804688 -5.367188 4.171875 -5.140625 C 4.546875 -4.910156 4.835938 -4.59375 5.046875 -4.1875 C 5.253906 -3.78125 5.359375 -3.335938 5.359375 -2.859375 Z M 2.953125 -4.828125 C 2.648438 -4.828125 2.367188 -4.75 2.109375 -4.59375 C 1.847656 -4.445312 1.628906 -4.226562 1.453125 -3.9375 C 1.273438 -3.65625 1.164062 -3.335938 1.125 -2.984375 L 4.65625 -2.984375 C 4.613281 -3.523438 4.4375 -3.96875 4.125 -4.3125 C 3.8125 -4.65625 3.421875 -4.828125 2.953125 -4.828125 Z M 2.953125 -4.828125 "/></g></g></g><g fill="#683998" fill-opacity="1"><g transform="translate(176.106852, 282.894591)"><g><path d="M 2.609375 0.109375 C 2.171875 0.109375 1.8125 -0.0390625 1.53125 -0.34375 C 1.257812 -0.65625 1.125 -1.078125 1.125 -1.609375 L 1.125 -4.71875 L 0.15625 -4.71875 L 0.15625 -5.375 L 0.578125 -5.375 C 1.015625 -5.375 1.234375 -5.59375 1.234375 -6.03125 L 1.234375 -6.8125 L 1.8125 -6.8125 L 1.8125 -5.375 L 3.078125 -5.375 L 3.078125 -4.71875 L 1.8125 -4.71875 L 1.8125 -1.609375 C 1.8125 -1.253906 1.890625 -0.988281 2.046875 -0.8125 C 2.210938 -0.632812 2.4375 -0.546875 2.71875 -0.546875 C 2.84375 -0.546875 2.960938 -0.566406 3.078125 -0.609375 L 3.078125 0.015625 C 2.921875 0.078125 2.765625 0.109375 2.609375 0.109375 Z M 2.609375 0.109375 "/></g></g></g><g fill="#683998" fill-opacity="1"><g transform="translate(181.169225, 282.894591)"><g><path d="M 0.828125 0 L 0.828125 -7.53125 L 1.53125 -7.53125 L 1.53125 -4.65625 L 1.578125 -4.65625 C 1.722656 -4.875 1.929688 -5.066406 2.203125 -5.234375 C 2.484375 -5.398438 2.804688 -5.484375 3.171875 -5.484375 C 3.566406 -5.484375 3.925781 -5.382812 4.25 -5.1875 C 4.582031 -5 4.84375 -4.722656 5.03125 -4.359375 C 5.21875 -4.003906 5.3125 -3.59375 5.3125 -3.125 L 5.3125 0 L 4.609375 0 L 4.609375 -3.125 C 4.609375 -3.65625 4.46875 -4.070312 4.1875 -4.375 C 3.90625 -4.675781 3.539062 -4.828125 3.09375 -4.828125 C 2.625 -4.828125 2.242188 -4.675781 1.953125 -4.375 C 1.671875 -4.070312 1.53125 -3.65625 1.53125 -3.125 L 1.53125 0 Z M 0.828125 0 "/></g></g></g><g fill="#683998" fill-opacity="1"><g transform="translate(188.816304, 282.894591)"><g><path d="M 5.359375 -2.859375 C 5.359375 -2.628906 5.34375 -2.457031 5.3125 -2.34375 L 1.140625 -2.34375 C 1.203125 -1.789062 1.398438 -1.351562 1.734375 -1.03125 C 2.066406 -0.707031 2.476562 -0.546875 2.96875 -0.546875 C 3.632812 -0.546875 4.132812 -0.832031 4.46875 -1.40625 L 5.171875 -1.40625 C 5.003906 -0.96875 4.71875 -0.601562 4.3125 -0.3125 C 3.914062 -0.03125 3.460938 0.109375 2.953125 0.109375 C 2.472656 0.109375 2.039062 -0.0078125 1.65625 -0.25 C 1.28125 -0.488281 0.976562 -0.816406 0.75 -1.234375 C 0.53125 -1.660156 0.421875 -2.144531 0.421875 -2.6875 C 0.421875 -3.21875 0.53125 -3.695312 0.75 -4.125 C 0.976562 -4.550781 1.285156 -4.882812 1.671875 -5.125 C 2.066406 -5.363281 2.492188 -5.484375 2.953125 -5.484375 C 3.398438 -5.484375 3.804688 -5.367188 4.171875 -5.140625 C 4.546875 -4.910156 4.835938 -4.59375 5.046875 -4.1875 C 5.253906 -3.78125 5.359375 -3.335938 5.359375 -2.859375 Z M 2.953125 -4.828125 C 2.648438 -4.828125 2.367188 -4.75 2.109375 -4.59375 C 1.847656 -4.445312 1.628906 -4.226562 1.453125 -3.9375 C 1.273438 -3.65625 1.164062 -3.335938 1.125 -2.984375 L 4.65625 -2.984375 C 4.613281 -3.523438 4.4375 -3.96875 4.125 -4.3125 C 3.8125 -4.65625 3.421875 -4.828125 2.953125 -4.828125 Z M 2.953125 -4.828125 "/></g></g></g><g fill="#683998" fill-opacity="1"><g transform="translate(196.215687, 282.894591)"><g><path d="M 0.78125 0 L 0.78125 -5.375 L 1.296875 -5.375 L 1.46875 -4.65625 L 1.53125 -4.65625 C 1.664062 -4.863281 1.863281 -5.050781 2.125 -5.21875 C 2.394531 -5.394531 2.679688 -5.484375 2.984375 -5.484375 C 3.148438 -5.484375 3.28125 -5.472656 3.375 -5.453125 L 3.375 -4.75 C 3.257812 -4.78125 3.132812 -4.796875 3 -4.796875 C 2.550781 -4.796875 2.179688 -4.640625 1.890625 -4.328125 C 1.609375 -4.023438 1.46875 -3.609375 1.46875 -3.078125 L 1.46875 0 Z M 0.78125 0 "/></g></g></g><g fill="#683998" fill-opacity="1"><g transform="translate(201.28883, 282.894591)"><g><path d="M 0.984375 -1.015625 C 1.140625 -1.015625 1.269531 -0.957031 1.375 -0.84375 C 1.488281 -0.726562 1.546875 -0.566406 1.546875 -0.359375 C 1.546875 -0.00390625 1.453125 0.328125 1.265625 0.640625 C 1.078125 0.960938 0.875 1.234375 0.65625 1.453125 L 0.46875 1.21875 C 0.738281 0.863281 0.890625 0.492188 0.921875 0.109375 C 0.773438 0.0976562 0.65625 0.0390625 0.5625 -0.0625 C 0.46875 -0.175781 0.421875 -0.304688 0.421875 -0.453125 C 0.421875 -0.609375 0.472656 -0.738281 0.578125 -0.84375 C 0.691406 -0.957031 0.828125 -1.015625 0.984375 -1.015625 Z M 0.984375 -1.015625 "/></g></g></g><g fill="#683998" fill-opacity="1"><g transform="translate(204.864994, 282.894591)"><g/></g></g><g fill="#683998" fill-opacity="1"><g transform="translate(209.044262, 282.894591)"><g><path d="M 3 0.109375 C 2.25 0.109375 1.648438 -0.0976562 1.203125 -0.515625 C 0.753906 -0.941406 0.507812 -1.503906 0.46875 -2.203125 L 1.234375 -2.203125 C 1.265625 -1.691406 1.4375 -1.296875 1.75 -1.015625 C 2.0625 -0.734375 2.484375 -0.59375 3.015625 -0.59375 C 3.546875 -0.59375 3.957031 -0.710938 4.25 -0.953125 C 4.539062 -1.203125 4.6875 -1.53125 4.6875 -1.9375 C 4.6875 -2.25 4.601562 -2.5 4.4375 -2.6875 C 4.269531 -2.882812 4.066406 -3.039062 3.828125 -3.15625 C 3.585938 -3.269531 3.257812 -3.398438 2.84375 -3.546875 C 2.363281 -3.703125 1.976562 -3.847656 1.6875 -3.984375 C 1.40625 -4.128906 1.160156 -4.332031 0.953125 -4.59375 C 0.753906 -4.863281 0.65625 -5.21875 0.65625 -5.65625 C 0.65625 -6.03125 0.742188 -6.367188 0.921875 -6.671875 C 1.109375 -6.972656 1.375 -7.207031 1.71875 -7.375 C 2.0625 -7.550781 2.46875 -7.640625 2.9375 -7.640625 C 3.414062 -7.640625 3.828125 -7.539062 4.171875 -7.34375 C 4.523438 -7.15625 4.796875 -6.890625 4.984375 -6.546875 C 5.179688 -6.210938 5.289062 -5.828125 5.3125 -5.390625 L 4.5625 -5.390625 C 4.53125 -5.867188 4.367188 -6.242188 4.078125 -6.515625 C 3.796875 -6.796875 3.414062 -6.9375 2.9375 -6.9375 C 2.457031 -6.9375 2.082031 -6.816406 1.8125 -6.578125 C 1.539062 -6.335938 1.40625 -6.03125 1.40625 -5.65625 C 1.40625 -5.363281 1.484375 -5.125 1.640625 -4.9375 C 1.804688 -4.757812 2.003906 -4.617188 2.234375 -4.515625 C 2.460938 -4.410156 2.78125 -4.289062 3.1875 -4.15625 C 3.664062 -4 4.054688 -3.847656 4.359375 -3.703125 C 4.660156 -3.554688 4.914062 -3.335938 5.125 -3.046875 C 5.332031 -2.765625 5.4375 -2.394531 5.4375 -1.9375 C 5.4375 -1.320312 5.222656 -0.828125 4.796875 -0.453125 C 4.378906 -0.078125 3.78125 0.109375 3 0.109375 Z M 3 0.109375 "/></g></g></g><g fill="#683998" fill-opacity="1"><g transform="translate(216.626727, 282.894591)"><g><path d="M 2.609375 0.109375 C 2.171875 0.109375 1.8125 -0.0390625 1.53125 -0.34375 C 1.257812 -0.65625 1.125 -1.078125 1.125 -1.609375 L 1.125 -4.71875 L 0.15625 -4.71875 L 0.15625 -5.375 L 0.578125 -5.375 C 1.015625 -5.375 1.234375 -5.59375 1.234375 -6.03125 L 1.234375 -6.8125 L 1.8125 -6.8125 L 1.8125 -5.375 L 3.078125 -5.375 L 3.078125 -4.71875 L 1.8125 -4.71875 L 1.8125 -1.609375 C 1.8125 -1.253906 1.890625 -0.988281 2.046875 -0.8125 C 2.210938 -0.632812 2.4375 -0.546875 2.71875 -0.546875 C 2.84375 -0.546875 2.960938 -0.566406 3.078125 -0.609375 L 3.078125 0.015625 C 2.921875 0.078125 2.765625 0.109375 2.609375 0.109375 Z M 2.609375 0.109375 "/></g></g></g><g fill="#683998" fill-opacity="1"><g transform="translate(221.689101, 282.894591)"><g><path d="M 5.359375 -2.859375 C 5.359375 -2.628906 5.34375 -2.457031 5.3125 -2.34375 L 1.140625 -2.34375 C 1.203125 -1.789062 1.398438 -1.351562 1.734375 -1.03125 C 2.066406 -0.707031 2.476562 -0.546875 2.96875 -0.546875 C 3.632812 -0.546875 4.132812 -0.832031 4.46875 -1.40625 L 5.171875 -1.40625 C 5.003906 -0.96875 4.71875 -0.601562 4.3125 -0.3125 C 3.914062 -0.03125 3.460938 0.109375 2.953125 0.109375 C 2.472656 0.109375 2.039062 -0.0078125 1.65625 -0.25 C 1.28125 -0.488281 0.976562 -0.816406 0.75 -1.234375 C 0.53125 -1.660156 0.421875 -2.144531 0.421875 -2.6875 C 0.421875 -3.21875 0.53125 -3.695312 0.75 -4.125 C 0.976562 -4.550781 1.285156 -4.882812 1.671875 -5.125 C 2.066406 -5.363281 2.492188 -5.484375 2.953125 -5.484375 C 3.398438 -5.484375 3.804688 -5.367188 4.171875 -5.140625 C 4.546875 -4.910156 4.835938 -4.59375 5.046875 -4.1875 C 5.253906 -3.78125 5.359375 -3.335938 5.359375 -2.859375 Z M 2.953125 -4.828125 C 2.648438 -4.828125 2.367188 -4.75 2.109375 -4.59375 C 1.847656 -4.445312 1.628906 -4.226562 1.453125 -3.9375 C 1.273438 -3.65625 1.164062 -3.335938 1.125 -2.984375 L 4.65625 -2.984375 C 4.613281 -3.523438 4.4375 -3.96875 4.125 -4.3125 C 3.8125 -4.65625 3.421875 -4.828125 2.953125 -4.828125 Z M 2.953125 -4.828125 "/></g></g></g><g fill="#683998" fill-opacity="1"><g transform="translate(229.088484, 282.894591)"><g><path d="M 0.78125 1.9375 L 0.78125 -5.375 L 1.296875 -5.375 L 1.46875 -4.65625 L 1.53125 -4.65625 C 1.601562 -4.75 1.71875 -4.859375 1.875 -4.984375 C 2.039062 -5.117188 2.242188 -5.234375 2.484375 -5.328125 C 2.722656 -5.429688 2.976562 -5.484375 3.25 -5.484375 C 3.695312 -5.484375 4.109375 -5.363281 4.484375 -5.125 C 4.867188 -4.894531 5.171875 -4.566406 5.390625 -4.140625 C 5.617188 -3.710938 5.734375 -3.226562 5.734375 -2.6875 C 5.734375 -2.15625 5.617188 -1.675781 5.390625 -1.25 C 5.171875 -0.820312 4.867188 -0.488281 4.484375 -0.25 C 4.109375 -0.0078125 3.695312 0.109375 3.25 0.109375 C 2.976562 0.109375 2.722656 0.0625 2.484375 -0.03125 C 2.242188 -0.132812 2.039062 -0.25 1.875 -0.375 C 1.707031 -0.507812 1.59375 -0.628906 1.53125 -0.734375 L 1.46875 -0.734375 L 1.46875 1.9375 Z M 3.25 -0.546875 C 3.570312 -0.546875 3.867188 -0.632812 4.140625 -0.8125 C 4.410156 -1 4.625 -1.253906 4.78125 -1.578125 C 4.945312 -1.898438 5.03125 -2.269531 5.03125 -2.6875 C 5.03125 -3.101562 4.945312 -3.472656 4.78125 -3.796875 C 4.625 -4.128906 4.410156 -4.382812 4.140625 -4.5625 C 3.867188 -4.738281 3.570312 -4.828125 3.25 -4.828125 C 2.925781 -4.828125 2.628906 -4.738281 2.359375 -4.5625 C 2.085938 -4.382812 1.867188 -4.128906 1.703125 -3.796875 C 1.546875 -3.472656 1.46875 -3.101562 1.46875 -2.6875 C 1.46875 -2.269531 1.546875 -1.898438 1.703125 -1.578125 C 1.867188 -1.253906 2.085938 -1 2.359375 -0.8125 C 2.628906 -0.632812 2.925781 -0.546875 3.25 -0.546875 Z M 3.25 -0.546875 "/></g></g></g><g fill="#683998" fill-opacity="1"><g transform="translate(236.854032, 282.894591)"><g/></g></g><g fill="#683998" fill-opacity="1"><g transform="translate(241.0333, 282.894591)"><g><path d="M 3.3125 0.109375 C 3.03125 0.109375 2.769531 0.0625 2.53125 -0.03125 C 2.289062 -0.132812 2.085938 -0.25 1.921875 -0.375 C 1.765625 -0.507812 1.648438 -0.628906 1.578125 -0.734375 L 1.53125 -0.734375 L 1.34375 0 L 0.828125 0 L 0.828125 -7.53125 L 1.53125 -7.53125 L 1.53125 -4.65625 L 1.578125 -4.65625 C 1.640625 -4.75 1.753906 -4.859375 1.921875 -4.984375 C 2.085938 -5.117188 2.289062 -5.234375 2.53125 -5.328125 C 2.769531 -5.429688 3.03125 -5.484375 3.3125 -5.484375 C 3.757812 -5.484375 4.171875 -5.363281 4.546875 -5.125 C 4.921875 -4.894531 5.21875 -4.566406 5.4375 -4.140625 C 5.664062 -3.710938 5.78125 -3.226562 5.78125 -2.6875 C 5.78125 -2.15625 5.664062 -1.675781 5.4375 -1.25 C 5.21875 -0.820312 4.921875 -0.488281 4.546875 -0.25 C 4.171875 -0.0078125 3.757812 0.109375 3.3125 0.109375 Z M 3.3125 -0.546875 C 3.632812 -0.546875 3.929688 -0.632812 4.203125 -0.8125 C 4.472656 -1 4.6875 -1.253906 4.84375 -1.578125 C 5 -1.898438 5.078125 -2.269531 5.078125 -2.6875 C 5.078125 -3.101562 5 -3.472656 4.84375 -3.796875 C 4.6875 -4.128906 4.472656 -4.382812 4.203125 -4.5625 C 3.929688 -4.738281 3.632812 -4.828125 3.3125 -4.828125 C 2.988281 -4.828125 2.6875 -4.738281 2.40625 -4.5625 C 2.132812 -4.382812 1.921875 -4.128906 1.765625 -3.796875 C 1.609375 -3.472656 1.53125 -3.101562 1.53125 -2.6875 C 1.53125 -2.269531 1.609375 -1.898438 1.765625 -1.578125 C 1.921875 -1.253906 2.132812 -1 2.40625 -0.8125 C 2.6875 -0.632812 2.988281 -0.546875 3.3125 -0.546875 Z M 3.3125 -0.546875 "/></g></g></g><g fill="#683998" fill-opacity="1"><g transform="translate(248.852693, 282.894591)"><g><path d="M 4.296875 -5.375 L 5.03125 -5.375 L 2.640625 0.53125 C 2.410156 1.09375 2.179688 1.472656 1.953125 1.671875 C 1.734375 1.878906 1.476562 1.984375 1.1875 1.984375 C 1.070312 1.984375 0.9375 1.957031 0.78125 1.90625 L 0.78125 1.265625 C 0.894531 1.304688 1.003906 1.328125 1.109375 1.328125 C 1.285156 1.328125 1.4375 1.273438 1.5625 1.171875 C 1.695312 1.066406 1.816406 0.878906 1.921875 0.609375 L 2.21875 -0.125 L 0.078125 -5.375 L 0.828125 -5.375 L 2.578125 -1.015625 Z M 4.296875 -5.375 "/></g></g></g><g fill="#683998" fill-opacity="1"><g transform="translate(255.57359, 282.894591)"><g/></g></g><g fill="#683998" fill-opacity="1"><g transform="translate(259.752857, 282.894591)"><g><path d="M 3 0.109375 C 2.25 0.109375 1.648438 -0.0976562 1.203125 -0.515625 C 0.753906 -0.941406 0.507812 -1.503906 0.46875 -2.203125 L 1.234375 -2.203125 C 1.265625 -1.691406 1.4375 -1.296875 1.75 -1.015625 C 2.0625 -0.734375 2.484375 -0.59375 3.015625 -0.59375 C 3.546875 -0.59375 3.957031 -0.710938 4.25 -0.953125 C 4.539062 -1.203125 4.6875 -1.53125 4.6875 -1.9375 C 4.6875 -2.25 4.601562 -2.5 4.4375 -2.6875 C 4.269531 -2.882812 4.066406 -3.039062 3.828125 -3.15625 C 3.585938 -3.269531 3.257812 -3.398438 2.84375 -3.546875 C 2.363281 -3.703125 1.976562 -3.847656 1.6875 -3.984375 C 1.40625 -4.128906 1.160156 -4.332031 0.953125 -4.59375 C 0.753906 -4.863281 0.65625 -5.21875 0.65625 -5.65625 C 0.65625 -6.03125 0.742188 -6.367188 0.921875 -6.671875 C 1.109375 -6.972656 1.375 -7.207031 1.71875 -7.375 C 2.0625 -7.550781 2.46875 -7.640625 2.9375 -7.640625 C 3.414062 -7.640625 3.828125 -7.539062 4.171875 -7.34375 C 4.523438 -7.15625 4.796875 -6.890625 4.984375 -6.546875 C 5.179688 -6.210938 5.289062 -5.828125 5.3125 -5.390625 L 4.5625 -5.390625 C 4.53125 -5.867188 4.367188 -6.242188 4.078125 -6.515625 C 3.796875 -6.796875 3.414062 -6.9375 2.9375 -6.9375 C 2.457031 -6.9375 2.082031 -6.816406 1.8125 -6.578125 C 1.539062 -6.335938 1.40625 -6.03125 1.40625 -5.65625 C 1.40625 -5.363281 1.484375 -5.125 1.640625 -4.9375 C 1.804688 -4.757812 2.003906 -4.617188 2.234375 -4.515625 C 2.460938 -4.410156 2.78125 -4.289062 3.1875 -4.15625 C 3.664062 -4 4.054688 -3.847656 4.359375 -3.703125 C 4.660156 -3.554688 4.914062 -3.335938 5.125 -3.046875 C 5.332031 -2.765625 5.4375 -2.394531 5.4375 -1.9375 C 5.4375 -1.320312 5.222656 -0.828125 4.796875 -0.453125 C 4.378906 -0.078125 3.78125 0.109375 3 0.109375 Z M 3 0.109375 "/></g></g></g><g fill="#683998" fill-opacity="1"><g transform="translate(267.335323, 282.894591)"><g><path d="M 2.609375 0.109375 C 2.171875 0.109375 1.8125 -0.0390625 1.53125 -0.34375 C 1.257812 -0.65625 1.125 -1.078125 1.125 -1.609375 L 1.125 -4.71875 L 0.15625 -4.71875 L 0.15625 -5.375 L 0.578125 -5.375 C 1.015625 -5.375 1.234375 -5.59375 1.234375 -6.03125 L 1.234375 -6.8125 L 1.8125 -6.8125 L 1.8125 -5.375 L 3.078125 -5.375 L 3.078125 -4.71875 L 1.8125 -4.71875 L 1.8125 -1.609375 C 1.8125 -1.253906 1.890625 -0.988281 2.046875 -0.8125 C 2.210938 -0.632812 2.4375 -0.546875 2.71875 -0.546875 C 2.84375 -0.546875 2.960938 -0.566406 3.078125 -0.609375 L 3.078125 0.015625 C 2.921875 0.078125 2.765625 0.109375 2.609375 0.109375 Z M 2.609375 0.109375 "/></g></g></g><g fill="#683998" fill-opacity="1"><g transform="translate(272.397697, 282.894591)"><g><path d="M 5.359375 -2.859375 C 5.359375 -2.628906 5.34375 -2.457031 5.3125 -2.34375 L 1.140625 -2.34375 C 1.203125 -1.789062 1.398438 -1.351562 1.734375 -1.03125 C 2.066406 -0.707031 2.476562 -0.546875 2.96875 -0.546875 C 3.632812 -0.546875 4.132812 -0.832031 4.46875 -1.40625 L 5.171875 -1.40625 C 5.003906 -0.96875 4.71875 -0.601562 4.3125 -0.3125 C 3.914062 -0.03125 3.460938 0.109375 2.953125 0.109375 C 2.472656 0.109375 2.039062 -0.0078125 1.65625 -0.25 C 1.28125 -0.488281 0.976562 -0.816406 0.75 -1.234375 C 0.53125 -1.660156 0.421875 -2.144531 0.421875 -2.6875 C 0.421875 -3.21875 0.53125 -3.695312 0.75 -4.125 C 0.976562 -4.550781 1.285156 -4.882812 1.671875 -5.125 C 2.066406 -5.363281 2.492188 -5.484375 2.953125 -5.484375 C 3.398438 -5.484375 3.804688 -5.367188 4.171875 -5.140625 C 4.546875 -4.910156 4.835938 -4.59375 5.046875 -4.1875 C 5.253906 -3.78125 5.359375 -3.335938 5.359375 -2.859375 Z M 2.953125 -4.828125 C 2.648438 -4.828125 2.367188 -4.75 2.109375 -4.59375 C 1.847656 -4.445312 1.628906 -4.226562 1.453125 -3.9375 C 1.273438 -3.65625 1.164062 -3.335938 1.125 -2.984375 L 4.65625 -2.984375 C 4.613281 -3.523438 4.4375 -3.96875 4.125 -4.3125 C 3.8125 -4.65625 3.421875 -4.828125 2.953125 -4.828125 Z M 2.953125 -4.828125 "/></g></g></g><g fill="#683998" fill-opacity="1"><g transform="translate(279.79708, 282.894591)"><g><path d="M 0.78125 1.9375 L 0.78125 -5.375 L 1.296875 -5.375 L 1.46875 -4.65625 L 1.53125 -4.65625 C 1.601562 -4.75 1.71875 -4.859375 1.875 -4.984375 C 2.039062 -5.117188 2.242188 -5.234375 2.484375 -5.328125 C 2.722656 -5.429688 2.976562 -5.484375 3.25 -5.484375 C 3.695312 -5.484375 4.109375 -5.363281 4.484375 -5.125 C 4.867188 -4.894531 5.171875 -4.566406 5.390625 -4.140625 C 5.617188 -3.710938 5.734375 -3.226562 5.734375 -2.6875 C 5.734375 -2.15625 5.617188 -1.675781 5.390625 -1.25 C 5.171875 -0.820312 4.867188 -0.488281 4.484375 -0.25 C 4.109375 -0.0078125 3.695312 0.109375 3.25 0.109375 C 2.976562 0.109375 2.722656 0.0625 2.484375 -0.03125 C 2.242188 -0.132812 2.039062 -0.25 1.875 -0.375 C 1.707031 -0.507812 1.59375 -0.628906 1.53125 -0.734375 L 1.46875 -0.734375 L 1.46875 1.9375 Z M 3.25 -0.546875 C 3.570312 -0.546875 3.867188 -0.632812 4.140625 -0.8125 C 4.410156 -1 4.625 -1.253906 4.78125 -1.578125 C 4.945312 -1.898438 5.03125 -2.269531 5.03125 -2.6875 C 5.03125 -3.101562 4.945312 -3.472656 4.78125 -3.796875 C 4.625 -4.128906 4.410156 -4.382812 4.140625 -4.5625 C 3.867188 -4.738281 3.570312 -4.828125 3.25 -4.828125 C 2.925781 -4.828125 2.628906 -4.738281 2.359375 -4.5625 C 2.085938 -4.382812 1.867188 -4.128906 1.703125 -3.796875 C 1.546875 -3.472656 1.46875 -3.101562 1.46875 -2.6875 C 1.46875 -2.269531 1.546875 -1.898438 1.703125 -1.578125 C 1.867188 -1.253906 2.085938 -1 2.359375 -0.8125 C 2.628906 -0.632812 2.925781 -0.546875 3.25 -0.546875 Z M 3.25 -0.546875 "/></g></g></g></svg>