<svg xmlns="http://www.w3.org/2000/svg" xmlns:xlink="http://www.w3.org/1999/xlink" width="500" zoomAndPan="magnify" viewBox="0 0 375 374.999991" height="500" preserveAspectRatio="xMidYMid meet" version="1.0"><defs><g/><clipPath id="15981fb072"><path d="M 92.960938 106.488281 L 220 106.488281 L 220 218.238281 L 92.960938 218.238281 Z M 92.960938 106.488281 " clip-rule="nonzero"/></clipPath><clipPath id="95e711e6ec"><path d="M 166 106.488281 L 281.960938 106.488281 L 281.960938 218.238281 L 166 218.238281 Z M 166 106.488281 " clip-rule="nonzero"/></clipPath><clipPath id="e8b88da9ef"><rect x="0" width="237" y="0" height="56"/></clipPath><clipPath id="0146a04b40"><rect x="0" width="126" y="0" height="20"/></clipPath></defs><rect x="-37.5" width="450" fill="#ffffff" y="-37.499999" height="449.999989" fill-opacity="1"/><rect x="-37.5" width="450" fill="#f9f9f9" y="-37.499999" height="449.999989" fill-opacity="1"/><g clip-path="url(#15981fb072)"><path fill="#5271ff" d="M 177.988281 206.972656 C 180.675781 204.113281 182.800781 200.882812 184.3125 197.429688 C 186.058594 193.433594 186.976562 189.140625 186.976562 184.769531 C 186.976562 182.9375 186.816406 181.140625 186.511719 179.394531 C 186.511719 179.394531 186.511719 179.390625 186.511719 179.390625 C 186.441406 179.175781 186.371094 178.957031 186.304688 178.738281 C 186.304688 178.734375 186.300781 178.730469 186.300781 178.726562 C 186.371094 178.949219 186.441406 179.171875 186.515625 179.394531 C 186.183594 177.496094 185.683594 175.660156 185.023438 173.894531 C 184.445312 171.242188 184.058594 168.546875 183.859375 165.816406 C 183.757812 164.40625 183.707031 162.988281 183.707031 161.5625 C 183.707031 156.75 184.289062 152.027344 185.445312 147.441406 C 185.734375 146.554688 185.984375 145.660156 186.191406 144.753906 C 186.773438 142.839844 187.457031 140.949219 188.246094 139.089844 C 191.152344 132.214844 195.3125 126.042969 200.609375 120.746094 C 205.910156 115.449219 212.082031 111.289062 218.957031 108.378906 C 219.203125 108.273438 219.457031 108.171875 219.707031 108.070312 C 216.1875 108.765625 212.734375 109.691406 209.363281 110.847656 C 201.285156 113.621094 194.03125 117.585938 187.804688 122.640625 C 186.652344 123.578125 185.542969 124.539062 184.484375 125.53125 C 179.714844 114.367188 168.625 106.519531 155.738281 106.519531 L 92.957031 106.519531 L 92.957031 218.242188 L 156.363281 218.242188 L 156.984375 218.136719 C 165.054688 216.769531 172.515625 212.804688 177.988281 206.972656 Z M 185.519531 175.976562 C 185.578125 176.203125 185.636719 176.433594 185.699219 176.664062 C 185.636719 176.433594 185.578125 176.203125 185.519531 175.976562 Z M 185.703125 176.667969 C 185.703125 176.667969 185.699219 176.667969 185.699219 176.664062 C 185.761719 176.894531 185.828125 177.125 185.890625 177.355469 C 185.890625 177.351562 185.890625 177.351562 185.890625 177.347656 C 185.824219 177.121094 185.761719 176.894531 185.703125 176.667969 Z M 186.296875 178.710938 C 186.28125 178.667969 186.269531 178.625 186.257812 178.582031 C 186.269531 178.625 186.28125 178.667969 186.296875 178.710938 Z M 185.289062 175.050781 C 185.269531 174.972656 185.253906 174.898438 185.234375 174.824219 C 185.253906 174.898438 185.269531 174.972656 185.289062 175.050781 Z M 155.066406 203.367188 L 107.832031 203.367188 L 107.832031 168.40625 L 155.578125 168.40625 C 155.917969 168.417969 156.253906 168.425781 156.589844 168.425781 C 165.214844 168.871094 172.101562 176.03125 172.101562 184.769531 C 172.101562 193.554688 164.816406 201.460938 155.066406 203.367188 Z M 167.199219 149.363281 C 164.378906 152.058594 160.738281 153.527344 156.875 153.554688 C 156.574219 153.542969 156.273438 153.535156 155.972656 153.53125 L 155.90625 153.527344 L 107.832031 153.527344 L 107.832031 121.394531 L 155.734375 121.394531 C 164.757812 121.394531 172.101562 128.738281 172.101562 137.761719 C 172.101562 142.222656 170.359375 146.339844 167.199219 149.363281 Z M 167.199219 149.363281 " fill-opacity="1" fill-rule="nonzero"/></g><g clip-path="url(#95e711e6ec)"><path fill="#181818" d="M 270.632812 189.109375 C 263.304688 196.875 252.921875 201.730469 241.425781 201.730469 C 219.277344 201.730469 201.257812 183.710938 201.257812 161.5625 C 201.257812 139.414062 219.277344 121.394531 241.425781 121.394531 C 253.375 121.394531 264.121094 126.644531 271.484375 134.949219 L 282.03125 124.402344 C 281.484375 123.804688 280.921875 123.21875 280.347656 122.640625 C 275.292969 117.589844 269.410156 113.621094 262.851562 110.847656 C 256.0625 107.976562 248.851562 106.519531 241.425781 106.519531 C 233.996094 106.519531 226.785156 107.976562 219.996094 110.847656 C 213.441406 113.621094 207.554688 117.589844 202.5 122.640625 C 197.449219 127.695312 193.480469 133.582031 190.707031 140.136719 C 188.5 145.355469 187.128906 150.824219 186.613281 156.449219 C 186.460938 158.140625 186.378906 159.847656 186.378906 161.5625 C 186.378906 165.5 186.789062 169.378906 187.601562 173.160156 C 188.003906 175.039062 188.507812 176.894531 189.109375 178.722656 C 189.285156 179.707031 189.421875 180.699219 189.515625 181.710938 C 189.703125 182.703125 189.800781 183.726562 189.800781 184.773438 C 189.800781 185.546875 189.746094 186.3125 189.636719 187.070312 C 189.601562 187.300781 189.5625 187.53125 189.519531 187.761719 C 188.832031 195.511719 185.496094 202.894531 179.941406 208.808594 C 176.125 212.871094 171.414062 216.085938 166.210938 218.246094 L 174.066406 218.246094 L 174.683594 218.140625 C 182.757812 216.769531 190.21875 212.804688 195.691406 206.972656 C 197.269531 205.292969 198.652344 203.488281 199.832031 201.582031 C 200.328125 200.785156 200.785156 199.96875 201.207031 199.140625 C 201.632812 199.59375 202.0625 200.042969 202.503906 200.484375 C 207.558594 205.539062 213.441406 209.507812 220 212.277344 C 226.789062 215.152344 234 216.605469 241.425781 216.605469 C 248.855469 216.605469 256.0625 215.152344 262.855469 212.277344 C 269.410156 209.507812 275.296875 205.539062 280.347656 200.484375 C 280.625 200.210938 280.898438 199.925781 281.167969 199.644531 Z M 270.632812 189.109375 " fill-opacity="1" fill-rule="nonzero"/></g><g transform="matrix(1, 0, 0, 1, 69, 213)"><g clip-path="url(#e8b88da9ef)"><g fill="#181818" fill-opacity="1"><g transform="translate(0.604454, 41.18194)"><g><path d="M 19.015625 -14.046875 C 20.597656 -13.710938 21.867188 -12.925781 22.828125 -11.6875 C 23.796875 -10.445312 24.28125 -9.035156 24.28125 -7.453125 C 24.28125 -5.160156 23.476562 -3.34375 21.875 -2 C 20.28125 -0.664062 18.050781 0 15.1875 0 L 2.421875 0 L 2.421875 -27.40625 L 14.75 -27.40625 C 17.539062 -27.40625 19.722656 -26.765625 21.296875 -25.484375 C 22.867188 -24.210938 23.65625 -22.484375 23.65625 -20.296875 C 23.65625 -18.679688 23.226562 -17.335938 22.375 -16.265625 C 21.53125 -15.203125 20.410156 -14.460938 19.015625 -14.046875 Z M 9.09375 -16.3125 L 13.46875 -16.3125 C 14.5625 -16.3125 15.398438 -16.550781 15.984375 -17.03125 C 16.566406 -17.519531 16.859375 -18.234375 16.859375 -19.171875 C 16.859375 -20.097656 16.566406 -20.804688 15.984375 -21.296875 C 15.398438 -21.796875 14.5625 -22.046875 13.46875 -22.046875 L 9.09375 -22.046875 Z M 14.015625 -5.390625 C 15.128906 -5.390625 15.992188 -5.640625 16.609375 -6.140625 C 17.222656 -6.648438 17.53125 -7.390625 17.53125 -8.359375 C 17.53125 -9.316406 17.207031 -10.066406 16.5625 -10.609375 C 15.925781 -11.160156 15.050781 -11.4375 13.9375 -11.4375 L 9.09375 -11.4375 L 9.09375 -5.390625 Z M 14.015625 -5.390625 "/></g></g></g><g fill="#181818" fill-opacity="1"><g transform="translate(26.319767, 41.18194)"><g><path d="M 9.09375 -5.15625 L 17.84375 -5.15625 L 17.84375 0 L 2.421875 0 L 2.421875 -27.40625 L 9.09375 -27.40625 Z M 9.09375 -5.15625 "/></g></g></g><g fill="#181818" fill-opacity="1"><g transform="translate(44.933123, 41.18194)"><g><path d="M 9.09375 -27.40625 L 9.09375 0 L 2.421875 0 L 2.421875 -27.40625 Z M 9.09375 -27.40625 "/></g></g></g><g fill="#181818" fill-opacity="1"><g transform="translate(56.444532, 41.18194)"><g><path d="M 12.328125 0.265625 C 10.328125 0.265625 8.53125 -0.0546875 6.9375 -0.703125 C 5.351562 -1.347656 4.085938 -2.304688 3.140625 -3.578125 C 2.191406 -4.859375 1.691406 -6.398438 1.640625 -8.203125 L 8.75 -8.203125 C 8.851562 -7.179688 9.203125 -6.40625 9.796875 -5.875 C 10.390625 -5.34375 11.171875 -5.078125 12.140625 -5.078125 C 13.128906 -5.078125 13.910156 -5.300781 14.484375 -5.75 C 15.054688 -6.207031 15.34375 -6.84375 15.34375 -7.65625 C 15.34375 -8.332031 15.113281 -8.890625 14.65625 -9.328125 C 14.195312 -9.765625 13.632812 -10.125 12.96875 -10.40625 C 12.3125 -10.695312 11.367188 -11.023438 10.140625 -11.390625 C 8.378906 -11.941406 6.9375 -12.488281 5.8125 -13.03125 C 4.695312 -13.582031 3.734375 -14.390625 2.921875 -15.453125 C 2.117188 -16.523438 1.71875 -17.914062 1.71875 -19.625 C 1.71875 -22.175781 2.640625 -24.175781 4.484375 -25.625 C 6.335938 -27.070312 8.742188 -27.796875 11.703125 -27.796875 C 14.722656 -27.796875 17.15625 -27.070312 19 -25.625 C 20.851562 -24.175781 21.84375 -22.164062 21.96875 -19.59375 L 14.75 -19.59375 C 14.695312 -20.476562 14.367188 -21.171875 13.765625 -21.671875 C 13.171875 -22.179688 12.40625 -22.4375 11.46875 -22.4375 C 10.664062 -22.4375 10.015625 -22.222656 9.515625 -21.796875 C 9.023438 -21.367188 8.78125 -20.75 8.78125 -19.9375 C 8.78125 -19.0625 9.195312 -18.375 10.03125 -17.875 C 10.863281 -17.382812 12.164062 -16.851562 13.9375 -16.28125 C 15.707031 -15.675781 17.144531 -15.097656 18.25 -14.546875 C 19.351562 -14.003906 20.304688 -13.210938 21.109375 -12.171875 C 21.921875 -11.128906 22.328125 -9.789062 22.328125 -8.15625 C 22.328125 -6.59375 21.925781 -5.171875 21.125 -3.890625 C 20.332031 -2.617188 19.179688 -1.609375 17.671875 -0.859375 C 16.171875 -0.109375 14.390625 0.265625 12.328125 0.265625 Z M 12.328125 0.265625 "/></g></g></g><g fill="#181818" fill-opacity="1"><g transform="translate(80.442891, 41.18194)"><g><path d="M 12.328125 0.265625 C 10.328125 0.265625 8.53125 -0.0546875 6.9375 -0.703125 C 5.351562 -1.347656 4.085938 -2.304688 3.140625 -3.578125 C 2.191406 -4.859375 1.691406 -6.398438 1.640625 -8.203125 L 8.75 -8.203125 C 8.851562 -7.179688 9.203125 -6.40625 9.796875 -5.875 C 10.390625 -5.34375 11.171875 -5.078125 12.140625 -5.078125 C 13.128906 -5.078125 13.910156 -5.300781 14.484375 -5.75 C 15.054688 -6.207031 15.34375 -6.84375 15.34375 -7.65625 C 15.34375 -8.332031 15.113281 -8.890625 14.65625 -9.328125 C 14.195312 -9.765625 13.632812 -10.125 12.96875 -10.40625 C 12.3125 -10.695312 11.367188 -11.023438 10.140625 -11.390625 C 8.378906 -11.941406 6.9375 -12.488281 5.8125 -13.03125 C 4.695312 -13.582031 3.734375 -14.390625 2.921875 -15.453125 C 2.117188 -16.523438 1.71875 -17.914062 1.71875 -19.625 C 1.71875 -22.175781 2.640625 -24.175781 4.484375 -25.625 C 6.335938 -27.070312 8.742188 -27.796875 11.703125 -27.796875 C 14.722656 -27.796875 17.15625 -27.070312 19 -25.625 C 20.851562 -24.175781 21.84375 -22.164062 21.96875 -19.59375 L 14.75 -19.59375 C 14.695312 -20.476562 14.367188 -21.171875 13.765625 -21.671875 C 13.171875 -22.179688 12.40625 -22.4375 11.46875 -22.4375 C 10.664062 -22.4375 10.015625 -22.222656 9.515625 -21.796875 C 9.023438 -21.367188 8.78125 -20.75 8.78125 -19.9375 C 8.78125 -19.0625 9.195312 -18.375 10.03125 -17.875 C 10.863281 -17.382812 12.164062 -16.851562 13.9375 -16.28125 C 15.707031 -15.675781 17.144531 -15.097656 18.25 -14.546875 C 19.351562 -14.003906 20.304688 -13.210938 21.109375 -12.171875 C 21.921875 -11.128906 22.328125 -9.789062 22.328125 -8.15625 C 22.328125 -6.59375 21.925781 -5.171875 21.125 -3.890625 C 20.332031 -2.617188 19.179688 -1.609375 17.671875 -0.859375 C 16.171875 -0.109375 14.390625 0.265625 12.328125 0.265625 Z M 12.328125 0.265625 "/></g></g></g><g fill="#181818" fill-opacity="1"><g transform="translate(104.44125, 41.18194)"><g/></g></g><g fill="#181818" fill-opacity="1"><g transform="translate(112.713856, 41.18194)"><g><path d="M 1.28125 -13.734375 C 1.28125 -16.441406 1.863281 -18.851562 3.03125 -20.96875 C 4.207031 -23.09375 5.84375 -24.75 7.9375 -25.9375 C 10.03125 -27.125 12.40625 -27.71875 15.0625 -27.71875 C 18.3125 -27.71875 21.09375 -26.859375 23.40625 -25.140625 C 25.726562 -23.421875 27.28125 -21.078125 28.0625 -18.109375 L 20.71875 -18.109375 C 20.175781 -19.253906 19.40625 -20.125 18.40625 -20.71875 C 17.40625 -21.320312 16.265625 -21.625 14.984375 -21.625 C 12.929688 -21.625 11.265625 -20.90625 9.984375 -19.46875 C 8.710938 -18.039062 8.078125 -16.128906 8.078125 -13.734375 C 8.078125 -11.335938 8.710938 -9.425781 9.984375 -8 C 11.265625 -6.570312 12.929688 -5.859375 14.984375 -5.859375 C 16.265625 -5.859375 17.40625 -6.15625 18.40625 -6.75 C 19.40625 -7.351562 20.175781 -8.226562 20.71875 -9.375 L 28.0625 -9.375 C 27.28125 -6.40625 25.726562 -4.066406 23.40625 -2.359375 C 21.09375 -0.660156 18.3125 0.1875 15.0625 0.1875 C 12.40625 0.1875 10.03125 -0.398438 7.9375 -1.578125 C 5.84375 -2.765625 4.207031 -4.410156 3.03125 -6.515625 C 1.863281 -8.628906 1.28125 -11.035156 1.28125 -13.734375 Z M 1.28125 -13.734375 "/></g></g></g><g fill="#181818" fill-opacity="1"><g transform="translate(142.448408, 41.18194)"><g><path d="M 9.09375 -5.15625 L 17.84375 -5.15625 L 17.84375 0 L 2.421875 0 L 2.421875 -27.40625 L 9.09375 -27.40625 Z M 9.09375 -5.15625 "/></g></g></g><g fill="#181818" fill-opacity="1"><g transform="translate(161.061764, 41.18194)"><g><path d="M 9.09375 -22.046875 L 9.09375 -16.515625 L 18.03125 -16.515625 L 18.03125 -11.359375 L 9.09375 -11.359375 L 9.09375 -5.34375 L 19.203125 -5.34375 L 19.203125 0 L 2.421875 0 L 2.421875 -27.40625 L 19.203125 -27.40625 L 19.203125 -22.046875 Z M 9.09375 -22.046875 "/></g></g></g><g fill="#181818" fill-opacity="1"><g transform="translate(182.17252, 41.18194)"><g><path d="M 19.484375 -4.84375 L 9.25 -4.84375 L 7.609375 0 L 0.625 0 L 10.53125 -27.40625 L 18.265625 -27.40625 L 28.1875 0 L 21.109375 0 Z M 17.765625 -9.984375 L 14.359375 -20.015625 L 11 -9.984375 Z M 17.765625 -9.984375 "/></g></g></g><g fill="#181818" fill-opacity="1"><g transform="translate(210.93153, 41.18194)"><g><path d="M 16.390625 0 L 10.6875 -10.34375 L 9.09375 -10.34375 L 9.09375 0 L 2.421875 0 L 2.421875 -27.40625 L 13.625 -27.40625 C 15.78125 -27.40625 17.617188 -27.023438 19.140625 -26.265625 C 20.660156 -25.515625 21.796875 -24.476562 22.546875 -23.15625 C 23.304688 -21.84375 23.6875 -20.382812 23.6875 -18.78125 C 23.6875 -16.957031 23.171875 -15.328125 22.140625 -13.890625 C 21.117188 -12.460938 19.609375 -11.445312 17.609375 -10.84375 L 23.921875 0 Z M 9.09375 -15.0625 L 13.234375 -15.0625 C 14.453125 -15.0625 15.367188 -15.359375 15.984375 -15.953125 C 16.597656 -16.554688 16.90625 -17.40625 16.90625 -18.5 C 16.90625 -19.539062 16.597656 -20.359375 15.984375 -20.953125 C 15.367188 -21.554688 14.453125 -21.859375 13.234375 -21.859375 L 9.09375 -21.859375 Z M 9.09375 -15.0625 "/></g></g></g></g></g><g transform="matrix(1, 0, 0, 1, 128, 257)"><g clip-path="url(#0146a04b40)"><g fill="#181818" fill-opacity="1"><g transform="translate(0.323564, 13.8129)"><g><path d="M 2.34375 -8.703125 L 2.34375 -5.453125 L 5.890625 -5.453125 L 5.890625 -4.40625 L 2.34375 -4.40625 L 2.34375 -1.046875 L 6.3125 -1.046875 L 6.3125 0 L 1.078125 0 L 1.078125 -9.75 L 6.3125 -9.75 L 6.3125 -8.703125 Z M 2.34375 -8.703125 "/></g></g></g><g fill="#181818" fill-opacity="1"><g transform="translate(13.516909, 13.8129)"><g><path d="M 4.15625 0.09375 C 3.519531 0.09375 2.945312 -0.0195312 2.4375 -0.25 C 1.925781 -0.476562 1.523438 -0.789062 1.234375 -1.1875 C 0.953125 -1.59375 0.804688 -2.0625 0.796875 -2.59375 L 2.15625 -2.59375 C 2.195312 -2.132812 2.382812 -1.75 2.71875 -1.4375 C 3.050781 -1.132812 3.53125 -0.984375 4.15625 -0.984375 C 4.769531 -0.984375 5.25 -1.132812 5.59375 -1.4375 C 5.945312 -1.738281 6.125 -2.125 6.125 -2.59375 C 6.125 -2.96875 6.019531 -3.269531 5.8125 -3.5 C 5.601562 -3.738281 5.34375 -3.914062 5.03125 -4.03125 C 4.726562 -4.15625 4.316406 -4.285156 3.796875 -4.421875 C 3.148438 -4.585938 2.632812 -4.753906 2.25 -4.921875 C 1.863281 -5.097656 1.535156 -5.363281 1.265625 -5.71875 C 0.992188 -6.082031 0.859375 -6.566406 0.859375 -7.171875 C 0.859375 -7.703125 0.988281 -8.171875 1.25 -8.578125 C 1.519531 -8.984375 1.898438 -9.296875 2.390625 -9.515625 C 2.878906 -9.742188 3.441406 -9.859375 4.078125 -9.859375 C 4.992188 -9.859375 5.738281 -9.628906 6.3125 -9.171875 C 6.894531 -8.722656 7.226562 -8.117188 7.3125 -7.359375 L 5.90625 -7.359375 C 5.863281 -7.734375 5.671875 -8.0625 5.328125 -8.34375 C 4.984375 -8.625 4.523438 -8.765625 3.953125 -8.765625 C 3.421875 -8.765625 2.988281 -8.628906 2.65625 -8.359375 C 2.320312 -8.085938 2.15625 -7.703125 2.15625 -7.203125 C 2.15625 -6.847656 2.253906 -6.554688 2.453125 -6.328125 C 2.648438 -6.109375 2.894531 -5.941406 3.1875 -5.828125 C 3.476562 -5.710938 3.890625 -5.582031 4.421875 -5.4375 C 5.066406 -5.257812 5.582031 -5.082031 5.96875 -4.90625 C 6.363281 -4.738281 6.703125 -4.472656 6.984375 -4.109375 C 7.265625 -3.753906 7.40625 -3.269531 7.40625 -2.65625 C 7.40625 -2.175781 7.28125 -1.726562 7.03125 -1.3125 C 6.78125 -0.894531 6.40625 -0.554688 5.90625 -0.296875 C 5.414062 -0.0351562 4.832031 0.09375 4.15625 0.09375 Z M 4.15625 0.09375 "/></g></g></g><g fill="#181818" fill-opacity="1"><g transform="translate(27.742784, 13.8129)"><g><path d="M 7.0625 -9.734375 L 7.0625 -8.703125 L 4.421875 -8.703125 L 4.421875 0 L 3.140625 0 L 3.140625 -8.703125 L 0.46875 -8.703125 L 0.46875 -9.734375 Z M 7.0625 -9.734375 "/></g></g></g><g fill="#181818" fill-opacity="1"><g transform="translate(41.326824, 13.8129)"><g><path d="M 4.109375 -9.734375 C 5.171875 -9.734375 6.085938 -9.535156 6.859375 -9.140625 C 7.640625 -8.742188 8.238281 -8.175781 8.65625 -7.4375 C 9.070312 -6.707031 9.28125 -5.84375 9.28125 -4.84375 C 9.28125 -3.851562 9.070312 -2.988281 8.65625 -2.25 C 8.238281 -1.519531 7.640625 -0.960938 6.859375 -0.578125 C 6.085938 -0.191406 5.171875 0 4.109375 0 L 1.078125 0 L 1.078125 -9.734375 Z M 4.109375 -1.046875 C 5.367188 -1.046875 6.328125 -1.378906 6.984375 -2.046875 C 7.640625 -2.710938 7.96875 -3.644531 7.96875 -4.84375 C 7.96875 -6.050781 7.632812 -6.992188 6.96875 -7.671875 C 6.3125 -8.359375 5.359375 -8.703125 4.109375 -8.703125 L 2.34375 -8.703125 L 2.34375 -1.046875 Z M 4.109375 -1.046875 "/></g></g></g><g fill="#181818" fill-opacity="1"><g transform="translate(57.22705, 13.8129)"><g/></g></g><g fill="#181818" fill-opacity="1"><g transform="translate(66.98797, 13.8129)"><g><path d="M 0.71875 -1.015625 C 1.894531 -1.960938 2.816406 -2.742188 3.484375 -3.359375 C 4.160156 -3.972656 4.726562 -4.609375 5.1875 -5.265625 C 5.644531 -5.929688 5.875 -6.585938 5.875 -7.234375 C 5.875 -7.835938 5.726562 -8.3125 5.4375 -8.65625 C 5.144531 -9.007812 4.671875 -9.1875 4.015625 -9.1875 C 3.390625 -9.1875 2.898438 -8.988281 2.546875 -8.59375 C 2.203125 -8.195312 2.015625 -7.671875 1.984375 -7.015625 L 0.75 -7.015625 C 0.789062 -8.054688 1.109375 -8.859375 1.703125 -9.421875 C 2.296875 -9.992188 3.066406 -10.28125 4.015625 -10.28125 C 4.972656 -10.28125 5.734375 -10.015625 6.296875 -9.484375 C 6.859375 -8.953125 7.140625 -8.222656 7.140625 -7.296875 C 7.140625 -6.515625 6.90625 -5.757812 6.4375 -5.03125 C 5.976562 -4.300781 5.457031 -3.660156 4.875 -3.109375 C 4.289062 -2.554688 3.539062 -1.910156 2.625 -1.171875 L 7.4375 -1.171875 L 7.4375 -0.109375 L 0.71875 -0.109375 Z M 0.71875 -1.015625 "/></g></g></g><g fill="#181818" fill-opacity="1"><g transform="translate(81.046413, 13.8129)"><g><path d="M 0.859375 -5.15625 C 0.859375 -6.757812 1.117188 -8.007812 1.640625 -8.90625 C 2.171875 -9.800781 3.085938 -10.25 4.390625 -10.25 C 5.679688 -10.25 6.585938 -9.800781 7.109375 -8.90625 C 7.628906 -8.007812 7.890625 -6.757812 7.890625 -5.15625 C 7.890625 -3.519531 7.628906 -2.25 7.109375 -1.34375 C 6.585938 -0.445312 5.679688 0 4.390625 0 C 3.085938 0 2.171875 -0.445312 1.640625 -1.34375 C 1.117188 -2.25 0.859375 -3.519531 0.859375 -5.15625 Z M 6.640625 -5.15625 C 6.640625 -5.96875 6.582031 -6.65625 6.46875 -7.21875 C 6.363281 -7.78125 6.144531 -8.234375 5.8125 -8.578125 C 5.488281 -8.921875 5.015625 -9.09375 4.390625 -9.09375 C 3.753906 -9.09375 3.269531 -8.921875 2.9375 -8.578125 C 2.601562 -8.234375 2.382812 -7.78125 2.28125 -7.21875 C 2.175781 -6.65625 2.125 -5.96875 2.125 -5.15625 C 2.125 -4.3125 2.175781 -3.601562 2.28125 -3.03125 C 2.382812 -2.46875 2.601562 -2.015625 2.9375 -1.671875 C 3.269531 -1.328125 3.753906 -1.15625 4.390625 -1.15625 C 5.015625 -1.15625 5.488281 -1.328125 5.8125 -1.671875 C 6.144531 -2.015625 6.363281 -2.46875 6.46875 -3.03125 C 6.582031 -3.601562 6.640625 -4.3125 6.640625 -5.15625 Z M 6.640625 -5.15625 "/></g></g></g><g fill="#181818" fill-opacity="1"><g transform="translate(95.844361, 13.8129)"><g><path d="M 0.71875 -1.015625 C 1.894531 -1.960938 2.816406 -2.742188 3.484375 -3.359375 C 4.160156 -3.972656 4.726562 -4.609375 5.1875 -5.265625 C 5.644531 -5.929688 5.875 -6.585938 5.875 -7.234375 C 5.875 -7.835938 5.726562 -8.3125 5.4375 -8.65625 C 5.144531 -9.007812 4.671875 -9.1875 4.015625 -9.1875 C 3.390625 -9.1875 2.898438 -8.988281 2.546875 -8.59375 C 2.203125 -8.195312 2.015625 -7.671875 1.984375 -7.015625 L 0.75 -7.015625 C 0.789062 -8.054688 1.109375 -8.859375 1.703125 -9.421875 C 2.296875 -9.992188 3.066406 -10.28125 4.015625 -10.28125 C 4.972656 -10.28125 5.734375 -10.015625 6.296875 -9.484375 C 6.859375 -8.953125 7.140625 -8.222656 7.140625 -7.296875 C 7.140625 -6.515625 6.90625 -5.757812 6.4375 -5.03125 C 5.976562 -4.300781 5.457031 -3.660156 4.875 -3.109375 C 4.289062 -2.554688 3.539062 -1.910156 2.625 -1.171875 L 7.4375 -1.171875 L 7.4375 -0.109375 L 0.71875 -0.109375 Z M 0.71875 -1.015625 "/></g></g></g><g fill="#181818" fill-opacity="1"><g transform="translate(109.902804, 13.8129)"><g><path d="M 7.3125 -9 L 2.40625 -9 L 2.40625 -5.8125 C 2.613281 -6.113281 2.925781 -6.359375 3.34375 -6.546875 C 3.769531 -6.734375 4.222656 -6.828125 4.703125 -6.828125 C 5.472656 -6.828125 6.097656 -6.664062 6.578125 -6.34375 C 7.066406 -6.019531 7.414062 -5.601562 7.625 -5.09375 C 7.84375 -4.59375 7.953125 -4.054688 7.953125 -3.484375 C 7.953125 -2.816406 7.820312 -2.21875 7.5625 -1.6875 C 7.3125 -1.15625 6.925781 -0.734375 6.40625 -0.421875 C 5.894531 -0.117188 5.257812 0.03125 4.5 0.03125 C 3.519531 0.03125 2.726562 -0.21875 2.125 -0.71875 C 1.519531 -1.226562 1.148438 -1.898438 1.015625 -2.734375 L 2.265625 -2.734375 C 2.378906 -2.203125 2.632812 -1.785156 3.03125 -1.484375 C 3.425781 -1.191406 3.921875 -1.046875 4.515625 -1.046875 C 5.242188 -1.046875 5.796875 -1.265625 6.171875 -1.703125 C 6.546875 -2.148438 6.734375 -2.738281 6.734375 -3.46875 C 6.734375 -4.1875 6.546875 -4.742188 6.171875 -5.140625 C 5.796875 -5.535156 5.25 -5.734375 4.53125 -5.734375 C 4.03125 -5.734375 3.597656 -5.613281 3.234375 -5.375 C 2.867188 -5.144531 2.601562 -4.828125 2.4375 -4.421875 L 1.234375 -4.421875 L 1.234375 -10.109375 L 7.3125 -10.109375 Z M 7.3125 -9 "/></g></g></g></g></g></svg>